<svg height="100" viewBox="0 0 100 100" width="100" xmlns="http://www.w3.org/2000/svg"><g fill="#070606"><path d="m86.3 19.5h-8.3v-9.9a3.4 3.4 0 0 0 -3.4-3.3h-8.3a3.3 3.3 0 0 0 -3.3 3.3v9.9h-25v-9.9a3.3 3.3 0 0 0 -3.3-3.3h-8.3a3.3 3.3 0 0 0 -3.3 3.3v9.9h-8.1a3.3 3.3 0 0 0 -3.3 3.3v69a3.3 3.3 0 0 0 3.3 3.3h71.3a3.2 3.2 0 0 0 3.3-3.3v-69a3.3 3.3 0 0 0 -3.3-3.3zm-16.6-6.5h1.6v5.3h-1.6zm-40 0h1.7v5.3h-1.7zm53.3 13.2v4.7h-64.6v-4.7zm0 62.3h-64.6v-51h64.6z"/><path d="m26 45h8.3v8.26h-8.3z"/><path d="m40.4 45h8.3v8.26h-8.3z"/><path d="m53.7 45h8.3v8.26h-8.3z"/><path d="m67 45h8.3v8.26h-8.3z"/><path d="m26 57.8h8.3v8.26h-8.3z"/><path d="m40.4 57.8h8.3v8.26h-8.3z"/><path d="m53.7 57.8h8.3v8.26h-8.3z"/><path d="m67 57.8h8.3v8.26h-8.3z"/><path d="m26 70.7h8.3v8.26h-8.3z"/><path d="m40.4 70.7h8.3v8.26h-8.3z"/><path d="m53.7 70.7h8.3v8.26h-8.3z"/><path d="m67 70.7h8.3v8.26h-8.3z"/></g></svg>