<svg xmlns="http://www.w3.org/2000/svg"><symbol id="apartment" viewBox="0 0 20 20"><defs><style>.cls-1{fill:#231f20}</style></defs><path d="M17 5.2h-6V1.5a.5.5 0 0 0-.5-.5H2.8a.5.5 0 0 0-.5.5v16.9a.5.5 0 0 0 .5.5H17a.5.5 0 0 0 .5-.5V5.7a.5.5 0 0 0-.5-.5zM10 2v3.2h-.9a.5.5 0 0 0-.5.5v12.2H7.3a1.3 1.3 0 0 0-.7-.6 2.6 2.6 0 0 0-.3-1.1 1.9 1.9 0 0 0-1.1-.7 2.2 2.2 0 0 0-1.4.2l-.5.6V2zm-.4 4.2h6.9V17a2.3 2.3 0 0 0-2.2-1.5 2.4 2.4 0 0 0-2.3 1.6h-.1a1.6 1.6 0 0 0-1.5.8h-.8z" class="cls-1"/><path d="M10.4 7.6h1.2v1.24h-1.2zm2 0h1.2v1.24h-1.2zm2 0h1.2v1.24h-1.2zm-4 2h1.2v1.24h-1.2zm2 0h1.2v1.24h-1.2zm2 0h1.2v1.24h-1.2zm-4 2h1.2v1.24h-1.2zm2 0h1.2v1.24h-1.2zm2 0h1.2v1.24h-1.2zm-4 2h1.2v1.24h-1.2zm2 0h1.2v1.24h-1.2zm2 0h1.2v1.24h-1.2zM4.3 3.6h1.2v1.24H4.3zm2 0h1.2v1.24H6.3zm-2 2h1.2v1.24H4.3zm2 0h1.2v1.24H6.3zm-2 2h1.2v1.24H4.3zm2 0h1.2v1.24H6.3zm-2 2h1.2v1.24H4.3zm2 0h1.2v1.24H6.3zm-2 2h1.2v1.24H4.3zm2 0h1.2v1.24H6.3zm-2 2h1.2v1.24H4.3zm2 0h1.2v1.24H6.3z" class="cls-1"/></symbol><symbol id="book" viewBox="0 0 20 20"><defs><style>.cls-1{fill:#231f20}</style></defs><path d="M16.4 5.6a.1.1 0 0 1-.1-.1h-.1a7.5 7.5 0 0 0-6.2-.4 7.5 7.5 0 0 0-6.2.1h-.1a.1.1 0 0 1-.1.1v9.4a.4.4 0 0 0 .2.4h.5a6.1 6.1 0 0 1 5.5 0h.4a5.8 5.8 0 0 1 5.5 0h.5a.4.4 0 0 0 .2-.4v-9zM4.6 14.3V6a5.7 5.7 0 0 1 4.9 0v8.3a6.7 6.7 0 0 0-4.9 0zm5.9 0V6a5.7 5.7 0 0 1 4.9 0v8.3a6.7 6.7 0 0 0-4.9 0z" class="cls-1"/></symbol><symbol id="ball" viewBox="0 0 20 20"><defs><style>.cls-1{fill:#231f20}</style></defs><path d="M13.4 4.6h-.1a6 6 0 0 0-3.3-.9 6.3 6.3 0 0 0-3.3.9h-.1A6.3 6.3 0 0 0 3.7 10a6.3 6.3 0 0 0 2.7 5.2h.1a6 6 0 0 0 3.5 1 6.3 6.3 0 0 0 6.3-6.2 6.3 6.3 0 0 0-2.9-5.4zM4.6 10a5.4 5.4 0 0 1 2.2-4.3 9.8 9.8 0 0 1 1 4.3 7.6 7.6 0 0 1-1.1 4.2A5.3 5.3 0 0 1 4.6 10zm2.9 4.7A9.3 9.3 0 0 0 8.7 10a10.4 10.4 0 0 0-1.1-4.8 4.8 4.8 0 0 1 2.4-.6 4.8 4.8 0 0 1 2.4.6 10.1 10.1 0 0 0-1.1 4.8 9.3 9.3 0 0 0 1.2 4.7 5.2 5.2 0 0 1-2.5.7 5.2 5.2 0 0 1-2.5-.7zm5.8-.5a7.6 7.6 0 0 1-1.1-4.2 9.8 9.8 0 0 1 1-4.3 5.4 5.4 0 0 1 2.2 4.3 5.3 5.3 0 0 1-2.1 4.2z" class="cls-1"/></symbol><symbol id="calendar" viewBox="0 0 20 20"><defs><style>.cls-1{fill:#231f20}</style></defs><path d="M15.4 5.3h-1.3V3.8a.5.5 0 0 0-.5-.5h-1.2a.5.5 0 0 0-.5.5v1.5H8.1V3.8a.5.5 0 0 0-.5-.5H6.4a.5.5 0 0 0-.5.5v1.5H4.7a.5.5 0 0 0-.5.5v10.3a.5.5 0 0 0 .5.5h10.7a.5.5 0 0 0 .5-.5V5.8a.5.5 0 0 0-.5-.5zm-2.5-1h.2v.8h-.2zm-6 0h.2v.8h-.2zm8 2V7H5.2v-.7zm0 9.4H5.2V8h9.7z" class="cls-1"/><path d="M6.3 9.1h1.2v1.24H6.3zm2.2 0h1.2v1.24H8.5zm2 0h1.2v1.24h-1.2zm2 0h1.2v1.24h-1.2zm-6.2 2h1.2v1.24H6.3zm2.2 0h1.2v1.24H8.5zm2 0h1.2v1.24h-1.2zm2 0h1.2v1.24h-1.2zM6.3 13h1.2v1.24H6.3zm2.2 0h1.2v1.24H8.5zm2 0h1.2v1.24h-1.2zm2 0h1.2v1.24h-1.2z" class="cls-1"/></symbol><symbol id="child-free" viewBox="0 0 20 20"><defs><style>.cls-1{fill:#231f20}</style></defs><path d="M17.2 5.4l1.7-1.7a.5.5 0 0 0 0-.7l-.5-.5a.5.5 0 0 0-.4-.2l-.3.2L16 4.2l-1.7-1.7-.4-.2-.3.2-.6.5a.5.5 0 0 0 0 .7l1.7 1.7L13 7.1a.5.5 0 0 0 0 .7l.6.6h.7L16 6.7l1.7 1.7h.7l.5-.6a.5.5 0 0 0 0-.7zm-4.1 4.3h-.2a5.4 5.4 0 0 0-4.3-2.9 2.7 2.7 0 0 0 .2-1.5 5.3 5.3 0 0 0 .5-1.5c0-.2 0-.3-.2-.3s-.2 0-.3.2l-.3 1a.8.8 0 0 0-.7-.4c-.6-.1-.9.2-.9.5a1 1 0 0 0 .8 1.1h.6a3.6 3.6 0 0 1-.2 1 5.4 5.4 0 0 0-4.8 2.8h-.2a2.1 2.1 0 0 0-2.2 2 2.1 2.1 0 0 0 2 2 5.4 5.4 0 0 0 10.4 0 2.1 2.1 0 0 0 2-2 2.1 2.1 0 0 0-2.2-2zM7.8 5.4c-.3 0-.5-.3-.4-.5s.1-.1.2-.1h.1a.5.5 0 0 1 .5.3h.1a.6.6 0 0 1-.5.3zm-5.1 6.1c0 .2-.1.5-.1.7s.1.3.1.4a.9.9 0 0 1-.8-.9 1.1 1.1 0 0 1 1-1 2.4 2.4 0 0 0-.2.8zm5.4 5.2a4.4 4.4 0 0 1-4.3-3.5h-.1c0-.3-.1-.6-.1-.9a4.7 4.7 0 0 1 .4-1.8l.3-.5a4.5 4.5 0 0 1 3.5-2.2.3.3 0 0 0 .1.2h.4a4.4 4.4 0 0 1 4.2 4.4 4.5 4.5 0 0 1-4.4 4.3zm5.5-4.1v-.4a7.7 7.7 0 0 0-.2-1.5 1.1 1.1 0 0 1 .9 1 1 1 0 0 1-.7.9z" class="cls-1"/><circle cx="5.9" cy="11.6" r=".9" class="cls-1"/><circle cx="10.2" cy="11.6" r=".9" class="cls-1"/><path d="M9.3 13.1a.5.5 0 0 0-.5.5.7.7 0 0 1-.8.8.8.8 0 0 1-.8-.8.5.5 0 0 0-.5-.5.5.5 0 0 0-.5.5 1.8 1.8 0 0 0 3.6 0 .5.5 0 0 0-.5-.5z" class="cls-1"/></symbol><symbol id="city" viewBox="0 0 43.5 43.5"><defs><style>.cls-1{fill:#231f20}</style></defs><path d="M7.8 20.8H6.6V22h1.2v-1.2zm0 2H6.6V24h1.2v-1.2zm0 2H6.6V26h1.2v-1.2zm0 2H6.6V28h1.2v-1.2zm0 1.9H6.6V30h1.2v-1.3zm0 2H6.6V32h1.2v-1.3zm0 2H6.6V34h1.2v-1.3z" class="cls-1"/><path d="M38.9 25.3h-7.1v-7.9a.5.5 0 0 0-.5-.5h-6.8V8.5A.5.5 0 0 0 24 8h-2.4v-.8a.5.5 0 0 0-.5-.5h-.7V5.6a.5.5 0 0 0-.5-.5h-1.3v-3a.5.5 0 0 0-.5-.5.5.5 0 0 0-.5.5v3h-1.4a.5.5 0 0 0-.5.5v1.1H15a.5.5 0 0 0-.5.5V8H12a.5.5 0 0 0-.5.5v9.9H4.6a.5.5 0 0 0-.5.5v21.4a.5.5 0 0 0 .5.5h34.3a.5.5 0 0 0 .5-.5V25.8a.5.5 0 0 0-.5-.5zM16.7 6.1h2.7v.6h-2.7zm-1.2 1.6h5.1V8h-5.1zM5.1 19.4h8.4v20.4H5.1zm16.9-2v22.4h-7.5V18.9a.5.5 0 0 0-.5-.5h-1.5V9h11v7.9h-1a.5.5 0 0 0-.5.5zm7.1 8.4v14H23V17.9h7.8v7.4h-1.2a.5.5 0 0 0-.5.5zm9.3 14h-8.3V26.3h8.3z" class="cls-1"/><path d="M31.6 27.7h1.2v1.24h-1.2zm2 0h1.2v1.24h-1.2zm2 0h1.2v1.24h-1.2zm-4 2h1.2v1.24h-1.2zm2 0h1.2v1.24h-1.2zm2 0h1.2v1.24h-1.2zm-4 2h1.2v1.24h-1.2zm2 0h1.2v1.24h-1.2zm2 0h1.2v1.24h-1.2zm-4 2.1h1.2v1.24h-1.2zm2 0h1.2v1.24h-1.2zm2-.1h1.2v1.24h-1.2zm-11.2-14h1.2v1.24h-1.2zm2 0h1.2v1.24h-1.2zm-2 2h1.2v1.24h-1.2zm2 0h1.2v1.24h-1.2zm2-2h1.2v1.24h-1.2zm0 2h1.2v1.24h-1.2zm-4 2h1.2v1.24h-1.2zm2 0h1.2v1.24h-1.2zm-2 2h1.2v1.24h-1.2zm2 0h1.2v1.24h-1.2zm-2 2h1.2v1.24h-1.2zm2 0h1.2v1.24h-1.2zm-2 2h1.2v1.24h-1.2zm2 0h1.2v1.24h-1.2zm-2 2h1.2v1.24h-1.2zm2 0h1.2v1.24h-1.2zm-2 2h1.2v1.24h-1.2zm2 0h1.2v1.24h-1.2zM16.1 10a.2.2 0 0 0-.2.2v26.7c0 .1.1.3.2.3a.3.3 0 0 0 .3-.3V10.2c0-.1-.1-.2-.3-.2zm4 0l-.2.2v26.7c0 .1.1.3.2.3a.3.3 0 0 0 .3-.3V10.2c0-.1-.1-.2-.3-.2zm-2 0l-.2.2v26.7c0 .1.1.3.2.3a.3.3 0 0 0 .3-.3V10.2c0-.1-.1-.2-.3-.2zM8.6 20.8h1.2v1.24H8.6zm2-.1h1.2v1.24h-1.2zm-2 2.1h1.2v1.24H8.6zm2-.1h1.2v1.24h-1.2zm-2 2.1h1.2v1.24H8.6zm2 0h1.2v1.24h-1.2zm-2 2h1.2v1.24H8.6zm2 0h1.2v1.24h-1.2zm-2 1.9h1.2v1.24H8.6zm2 0h1.2v1.24h-1.2zm-2 2h1.2v1.24H8.6zm2 0h1.2v1.24h-1.2zm-2 2h1.2v1.24H8.6zm2 0h1.2v1.24h-1.2z" class="cls-1"/></symbol><symbol id="dog" viewBox="0 0 43.5 43.5"><path d="M17.2 19.7a1.6 1.6 0 0 0-1.6 1.5 1.6 1.6 0 0 0 1.6 1.6 1.6 1.6 0 1 0 0-3.1zm.5 1.4a.3.3 0 0 1-.3-.3c0-.2.1-.4.3-.4a.4.4 0 0 1 .4.4c0 .2-.2.3-.4.3zm8.8-1.4a1.6 1.6 0 0 0-1.6 1.5 1.6 1.6 0 0 0 1.6 1.6 1.6 1.6 0 0 0 1.5-1.6 1.5 1.5 0 0 0-1.5-1.5zm.5 1.4a.3.3 0 0 1-.3-.3c0-.2.1-.4.3-.4s.3.2.3.4a.3.3 0 0 1-.3.3zm-10.6-3.3a.5.5 0 0 0-.6-.5 3 3 0 0 0-2.8 3.1c0 .4.2.7.6.7a.7.7 0 0 0 .6-.7 2.7 2.7 0 0 1 .2-.9 1.8 1.8 0 0 1 1.5-1 .5.5 0 0 0 .5-.7zm11.3-.5c-.3-.1-.6.2-.7.5a.7.7 0 0 0 .6.7 1.5 1.5 0 0 1 1.4 1 1.7 1.7 0 0 1 .3.9.6.6 0 1 0 1.2 0 3 3 0 0 0-2.8-3.1z"/><path d="M42.5 22.7c-1.4-5-8.2-9.9-8.4-10.1H34a7.4 7.4 0 0 0-4.8-2.4l-1.3-6.1-.2-.3c-.4-.6-1.4-.9-3.4-.8a36.5 36.5 0 0 0-6.8.8c-3.9.8-8.2 2.2-9.1 3.5a1.8 1.8 0 0 0-.2.9v.2l1.2 5.7c-.3.2-7.1 5.2-8.4 10.1-.6 1.9.3 4.1 2.3 6.5a17.9 17.9 0 0 0 5.1 4 3.4 3.4 0 0 0 1.2.4.7.7 0 0 0 .7-.4l.2-.3c.5 2.1 1.5 3.4 3.1 4a4.5 4.5 0 0 0 2 .4h1.1a10.4 10.4 0 0 0 4.8 1.8h.1c2.2 0 4.7-1.7 4.9-1.8h1.1a4.5 4.5 0 0 0 2-.4 4.3 4.3 0 0 0 2-1.5 6.2 6.2 0 0 0 1.1-2.6.4.4 0 0 0 .1-.3c0-.1.1-.3.1-.4v-.8c.1.1.1.3.2.4a1.1 1.1 0 0 0 .7.3 2.5 2.5 0 0 0 1.3-.4 17.9 17.9 0 0 0 5.1-4c2-2.3 2.8-4.5 2.3-6.4zM28 10.5a6.8 6.8 0 0 1-2.5 1.3 35.2 35.2 0 0 1-4.8 1.4 2.3 2.3 0 0 0 1.1-1.6 21.6 21.6 0 0 0 5.9-2.2zm-1.1-4.9l.3 1.3a21.6 21.6 0 0 1-5.9 2.2 3.4 3.4 0 0 0-1.4-.9c2.8-.7 5.7-1.6 7-2.6zm-7.8 7.7a2.4 2.4 0 1 1 2.4-2.4 2.4 2.4 0 0 1-2.4 2.4zm-2.8-3.1a17.7 17.7 0 0 1-6.3.3l-.3-1.3h2.1a28.6 28.6 0 0 0 5.4-.6 2.9 2.9 0 0 0-.9 1.6zm.6 2.5a2.5 2.5 0 0 0 1.5 1l-4.8.6c-2.1.1-2.7-.2-2.8-.3l-.2-1a20.6 20.6 0 0 0 6.3-.3zm-5-6A35 35 0 0 1 17.8 5a51.3 51.3 0 0 1 6.1-.8 6.6 6.6 0 0 1 2.6.2 7.8 7.8 0 0 1-2.3 1.2 47.8 47.8 0 0 1-5.9 1.7 54.1 54.1 0 0 1-6.1.8 6.3 6.3 0 0 1-2.6-.2 7.8 7.8 0 0 1 2.3-1.2zm-2.1 22c0 1.1-.1 2.1-.1 3.2v.5c-.1.5-.1 1-.2 1.4a16.4 16.4 0 0 1-5.9-4.7c-.9-1.2-1.9-3-1.4-4.6.9-3.5 5.1-7.1 7-8.6l.3 4.1c.1.7.1 1.3.2 1.9a51.9 51.9 0 0 1 .1 6.8zm11.8 10.6a7.1 7.1 0 0 1-3.1-1l3.1-1.3 3 1.3a6.3 6.3 0 0 1-3 1zm10-5.9v.4c0 .1 0 .1-.1.2a4.5 4.5 0 0 1-2.3 3.3c-2.4.9-5.6-.8-6.8-1.5h-.2v-3.4a4 4 0 0 0 1.7-1.9c.4-1.4-2.4-1.3-2.4-1.3s-2.6 0-2.2 1.3a4 4 0 0 0 1.7 1.9v3.4c-1 .6-4.5 2.5-7 1.5a4.5 4.5 0 0 1-2.3-3.3.4.4 0 0 1-.1-.3c0-.2 0-.3-.1-.4v-.7a.4.4 0 0 0 .1-.3V32a98900225638734.1 98900225638734.1 0 0 1 .2-.6l.2-.2c0-.1.1-.2.1-.3l.2-.3c.1 0 .1-.1.2-.2l.2-.3c.1 0 .1-.1.2-.2l.3-.2.2-.2.3-.2.3-.2.3-.2.3-.2.3-.2.4-.2h.3l.3-.2h.4l.3-.2H18a11.3 11.3 0 0 1 3.6-.6 11.9 11.9 0 0 1 3.7.6h1l.4.2h.7l.3.2.3.2h.4l.3.2.3.2.3.2.3.2.3.2c0 .1.1.2.2.3l.3.2c0 .1.1.1.2.2s.1.2.2.3l.2.2c.1.1.1.2.1.3l.2.3a.3.3 0 0 1 .1.2c0 .1.1.2.1.3s.1.2.1.3v.3a.4.4 0 0 1 .1.3v.4a.4.4 0 0 1-.1.3zm1-2.3a.8.8 0 0 1-.2-.4l-.2-.3-.2-.4c-.1-.1-.2-.2-.2-.3l-.3-.3-.3-.3-.3-.3-.3-.2-.3-.3-.3-.2-.3-.2-.4-.2-.3-.2-.4-.2-.4-.2-.3-.2h-.4l-.4-.2h-.4l-.3-.2h-.8a13.6 13.6 0 0 0-8 0h-1l-.4.2h-.4l-.4.2h-.3l-.4.2-.3.2-.4.2-.4.2-.3.2-.3.3-.3.2-.3.3-.3.2-.3.3-.3.3-.2.3-.2.3v-1.3a54.8 54.8 0 0 0-.1-7c0-.6-.1-1.3-.1-1.9s-.3-3.1-.4-4.7a8.1 8.1 0 0 0 2.5.3h.3a36.5 36.5 0 0 0 6.7-.8c3.7-.8 7.7-2.1 8.9-3.3h.1a6.7 6.7 0 0 1 4.1 1.9c-.1 1.7-.2 3.4-.4 5.1a11 11 0 0 1-.2 1.8c-.2 2.4-.1 4.8-.1 7s.1 2.1.2 3.2v.7zm7.3-3.6a14.3 14.3 0 0 1-5.9 4.7 2.8 2.8 0 0 1-.2-1.4v-.5c-.1-1-.1-2.1-.1-3.1a51.7 51.7 0 0 1 .1-6.8c0-.7.1-1.3.1-1.9s.3-2.8.4-4.2c1.9 1.5 6 5.2 7 8.7.4 1.6-.5 3.3-1.4 4.5z"/><path d="M19.7 11.1a.4.4 0 0 1-.1-.3.8.8 0 0 0-.2-.4l-.5-.2h-.4c0 .1-.1.3 0 .4a.4.4 0 0 1-.1.3c-.1.2-.4.2-.5.3a.3.3 0 0 0 0 .4l.4.2h.9l.8.2c.1-.1.3-.2.3-.3a.2.2 0 0 0-.1-.4z"/><path d="M18.2 10.9c0-.2-.1-.4-.3-.4a.4.4 0 0 0-.4.4c0 .2.2.3.4.3a.3.3 0 0 0 .3-.3z"/><circle cx="18.4" cy="10" r=".3"/><path d="M19.4 10.2a.4.4 0 0 0 .4-.4c0-.2-.2-.3-.4-.3a.3.3 0 0 0-.3.3c0 .2.1.4.3.4z"/><circle cx="20.1" cy="10.6" r=".3"/></symbol><symbol id="facebook" viewBox="0 0 20 20"><path d="M10 .3a9.4 9.4 0 1 0 9.4 9.4A9.4 9.4 0 0 0 10 .3zm0 17.5a8.2 8.2 0 0 1-8.1-8.1A8.2 8.2 0 0 1 10 1.6a8.2 8.2 0 0 1 8.1 8.1 8.2 8.2 0 0 1-8.1 8.1z"/><path d="M10.8 6.6c0-.3.2-.4.5-.5h1.2V4.3h-2.1a2 2 0 0 0-1.8 2 5.7 5.7 0 0 0 0 1.3v.2H7.5v1.6c0 .3 0 .3.3.3h.8v5.4h2.2V9.7h1.5c.1-.5.1-1 .2-1.4v-.5h-1.7z"/></symbol><symbol id="food-bowl" viewBox="0 0 20 20"><path d="M15.5 8.9h-.6v-.4c-.1-.3-.2-.5-.5-.6a.6.6 0 0 0-.6 0h-.4a1.6 1.6 0 0 0-1.8-.7c-.2-.4-.4-.7-.8-.8a1.3 1.3 0 0 0-1.2-.1 1.6 1.6 0 0 0-.9.7h-.5l-.3.2A1.4 1.4 0 0 0 6.8 7 1.6 1.6 0 0 0 6 8h-.3a.7.7 0 0 0-.5.4.4.4 0 0 0-.1.3h-.6l-1.8 4v.2c0 1.6 3.8 2.4 7.3 2.4s7.4-.8 7.4-2.4zM10 14.5c-3.9 0-6.1-.9-6.3-1.4l1.4-3.2h9.8l1.4 3.2c-.2.5-2.4 1.4-6.3 1.4z"/><path d="M11.4 10.8a.8.8 0 0 0-.8.5H9.4a.8.8 0 0 0-.8-.5.8.8 0 0 0-.8.7c0 .2.1.3.1.5v.4a.9.9 0 0 0 .8.8.8.8 0 0 0 .7-.5h1.4a.8.8 0 0 0 .7.5.9.9 0 0 0 .8-.8c0-.2-.1-.3-.1-.4s.1-.3.1-.5a.8.8 0 0 0-.9-.7z"/></symbol><symbol id="house" viewBox="0 0 20 20"><defs><style>.cls-1{fill:#231f20}</style></defs><path d="M18.2 9.3l-7.7-7.7h-.4L1.8 9.3a.1.1 0 0 0 0 .2l.2.2h.7V18a.6.6 0 0 0 .5.5h13.6a.6.6 0 0 0 .5-.5V9.8h.7a.2.2 0 0 0 .2-.2c.1-.1 0-.2 0-.3zm-1.9 8.2h-5v-5c0-.1-.1-.3-.2-.3H8.9a.3.3 0 0 0-.3.3v5H3.7V9.7h12.6z" class="cls-1"/><path d="M5.6 14.7h1.2a.6.6 0 0 0 .6-.6v-1.3a.6.6 0 0 0-.6-.6H5.6a.6.6 0 0 0-.6.6v1.3a.6.6 0 0 0 .6.6zm-.2-.6v-.4H6v.6h-.4a.2.2 0 0 1-.2-.2zm1.4.2h-.4v-.6H7v.4a.2.2 0 0 1-.2.2zm.2-1.5v.5h-.6v-.7h.4a.2.2 0 0 1 .2.2zm-1.4-.2H6v.7h-.6v-.5a.2.2 0 0 1 .2-.2zm7.5 2.1h1.2a.6.6 0 0 0 .6-.6v-1.3a.6.6 0 0 0-.6-.6h-1.2a.6.6 0 0 0-.6.6v1.3a.6.6 0 0 0 .6.6zm-.2-.6v-.4h.6v.6h-.4a.2.2 0 0 1-.2-.2zm1.4.2h-.4v-.6h.6v.4a.2.2 0 0 1-.2.2zm.2-1.5v.4h-.6v-.6h.4a.2.2 0 0 1 .2.2zm-1.4-.2h.4v.6h-.6v-.4a.2.2 0 0 1 .2-.2z" class="cls-1"/></symbol><symbol id="instagram" viewBox="0 0 20 20"><path d="M10 .6a9.4 9.4 0 1 0 9.4 9.4A9.4 9.4 0 0 0 10 .6zm0 17.5A8.2 8.2 0 0 1 1.9 10 8.2 8.2 0 0 1 10 1.9a8.2 8.2 0 0 1 8.1 8.1 8.2 8.2 0 0 1-8.1 8.1z"/><path d="M13.7 5.6H6.3a1.1 1.1 0 0 0-1.1 1.1V14a1.1 1.1 0 0 0 1.1 1.1h7.4a1.1 1.1 0 0 0 1.1-1.1V6.7a1.1 1.1 0 0 0-1.1-1.1zM10 8.5a1.8 1.8 0 0 1 1.8 1.9 1.8 1.8 0 1 1-3.6 0A1.8 1.8 0 0 1 10 8.5zm3.7 5.1a.4.4 0 0 1-.4.4H6.7a.4.4 0 0 1-.4-.4v-4h.9a1.9 1.9 0 0 0-.1.8 2.9 2.9 0 1 0 5.8 0 2.2 2.2 0 0 0-.1-.8h.9zm0-5.4c0 .2-.2.3-.4.3h-1.1c-.2 0-.4-.1-.4-.3V7.1a.4.4 0 0 1 .4-.4h1.1a.4.4 0 0 1 .4.4z"/></symbol><symbol id="location" viewBox="0 0 20 20"><defs><style>.cls-1{fill:#231f20}</style></defs><path d="M14.1 6.9a4.1 4.1 0 0 0-8.2 0c-.5 4 3.5 9.5 3.7 9.7s.2.2.4.2.3 0 .4-.2 4.2-5.7 3.7-9.7zM10 15.5C9 14 6.5 9.9 6.9 7a3.1 3.1 0 0 1 6.2 0c.4 2.9-2.1 7-3.1 8.5z" class="cls-1"/><path d="M10 5.5a2.1 2.1 0 0 0-2.1 2.1 2.1 2.1 0 0 0 4.2 0A2.1 2.1 0 0 0 10 5.5zm0 3.2a1.1 1.1 0 1 1 1.1-1.1A1.1 1.1 0 0 1 10 8.7z" class="cls-1"/></symbol><symbol id="medication" viewBox="0 0 20 20"><path d="M17.2 6a5 5 0 0 0-1.8-3.1A5.2 5.2 0 0 0 12 2a5 5 0 0 0-3.1 1.8L6.3 7.2l-2.6 3.3a4.8 4.8 0 0 0-.9 3.5 5 5 0 0 0 1.8 3.1 4.7 4.7 0 0 0 2.8.9 4.6 4.6 0 0 0 3.7-1.8l2.6-3.4 2.6-3.3a4.8 4.8 0 0 0 .9-3.5zm-1.7 2.8l-2.3 3-5.8-4.4 2.3-3A3.5 3.5 0 0 1 12.1 3a3.7 3.7 0 0 1 2.7.7 3.5 3.5 0 0 1 1.4 2.5 3.5 3.5 0 0 1-.7 2.6z"/></symbol><symbol id="next" viewBox="0 0 20 20"><defs><style>.cls-1{fill:#231f20}</style></defs><path d="M15.5 9.3L6.8.6a.9.9 0 0 0-1.2 0l-1.1 1a1.1 1.1 0 0 0 0 1.3l7.1 7.1-7.1 7.1a1.1 1.1 0 0 0 0 1.3l1.1 1a.7.7 0 0 0 .6.3.9.9 0 0 0 .6-.3l8.7-8.7a.8.8 0 0 0 .2-.7.8.8 0 0 0-.2-.7z" class="cls-1"/></symbol><symbol id="owner" viewBox="0 0 43.5 43.5"><path d="M42.1 21.8a1.7 1.7 0 0 0-1.5-1.6v-3.3l.3-.3a2.7 2.7 0 0 0 .8-1.9c0-.3-.1-.5-.1-.8s-3.9-3.9-4.7-4.3.2-1 .2-1c-7.1-1.9-10 2.4-10.9 4.6a2.1 2.1 0 0 0-.4 1.2.4.4 0 0 0-.1.3 2.5 2.5 0 0 0 .8 1.8v4.1a1.8 1.8 0 0 0-1.6 1.7 1.8 1.8 0 0 0 1.6 1.7v4.7a6.6 6.6 0 0 0 6.5 6.6h1.1a6.6 6.6 0 0 0 6.6-6.5v-2h-.1v-3.3a1.7 1.7 0 0 0 1.5-1.7zm-3.6-5.5a3.4 3.4 0 0 0 1.5-2.1 1.9 1.9 0 0 0-.6-1.6c-.1 0-.1-.2 0-.2h.3a2.4 2.4 0 0 1 .7 1.9 3.7 3.7 0 0 1-1.7 2.4h-.3a.4.4 0 0 1 .1-.4zm-8.8-4.4c.8-1.6 2.7-2.6 5.5-3.1l.2.2-.2.2c-2.7.4-4.4 1.4-5.2 2.8a5.4 5.4 0 0 0 .1 4.3c.1.1 0 .2-.1.2h-.2a5.4 5.4 0 0 1-.1-4.6zm3.4 4.3v.3h-.3a5.6 5.6 0 0 1-1.5-3.8 2.4 2.4 0 0 1 1.1-1.9h.3a.1.1 0 0 1 0 .2 2.2 2.2 0 0 0-1 1.7c-.2 1.7 1.4 3.5 1.4 3.5zm2.3 12.7a.9.9 0 0 1-.9 1h-2.1a1 1 0 0 1-1-1v-1.1a1.1 1.1 0 0 1 1-1h2.1a1 1 0 0 1 .9 1zm5.2-6.4v-.6h-1.2c.3 2.8-.3 3.6-.5 3.8H28.2c-.2-.2-.8-1-.6-3.8h-1.1V23c-.4-.1-.7-.3-.7-.7a.9.9 0 0 1 .6-.7v.2h1.2v-4.5l.9.2h10.9v4.4h1.2v-.6a.6.6 0 0 1 .5.6.8.8 0 0 1-.5.6zM10.1 22a.7.7 0 0 0-.8.8.8.8 0 0 0 .8.8.9.9 0 0 0 .8-.8.8.8 0 0 0-.8-.8zm.3.7h-.2a.2.2 0 0 1 .2-.2c.1 0 .1.1.1.2zm4.4-.7a.8.8 0 0 0-.8.8.8.8 0 1 0 1.6 0 .8.8 0 0 0-.8-.8zm.3.7h-.2a.2.2 0 0 1 .2-.2c.1 0 .1.1.1.2zm-5.4-1.3c.1-.1.1-.2.1-.4a.4.4 0 0 0-.1-.3h-.3a1.8 1.8 0 0 0-1.6 1.8.5.5 0 0 0 .5.4.4.4 0 0 0 .4-.4 1.8 1.8 0 0 1 .1-.5.9.9 0 0 1 .6-.4c.2-.1.3-.1.3-.2zm5.8-.8a.5.5 0 0 0-.5.4c0 .2 0 .3.1.4s.1.1.3.1a.9.9 0 0 1 .6.4 1.8 1.8 0 0 1 .1.5.4.4 0 0 0 .4.4.5.5 0 0 0 .5-.4 1.7 1.7 0 0 0-1.5-1.8z"/><path d="M18.7 18.9h-.2a7.1 7.1 0 0 0-5.9-3A8.1 8.1 0 0 0 6.3 19c-.1 0-.2 0-.2.1s-3.6 2.6-4.4 5.2A3.8 3.8 0 0 0 3 27.6a7.7 7.7 0 0 0 2.6 2.1l.7.2a.4.4 0 0 0 .4-.2 2.7 2.7 0 0 0 1.5 1.9 2.9 2.9 0 0 0 1.6.2 7 7 0 0 0 2.5.9h.1a5.7 5.7 0 0 0 2.4-.9 3.2 3.2 0 0 0 1.7-.2 1.9 1.9 0 0 0 1-.8l.6-1.2.4.2.7-.2a7.7 7.7 0 0 0 2.6-2.1 4 4 0 0 0 1.3-3.4c-.7-2.5-4.2-5-4.4-5.2zM6.2 26.6v1.8a1.3 1.3 0 0 0-.1.6 9.3 9.3 0 0 1-2.8-2.3 2.9 2.9 0 0 1-.7-2.2c.4-1.6 2.3-3.4 3.3-4.2.1.7.1 1.3.2 1.9a2.8 2.8 0 0 0 .1.9 20.4 20.4 0 0 1 0 3.5zm6.1 5.2a5.3 5.3 0 0 1-1.2-.3l1.2-.6 1.3.6zm5-3v.2a1.9 1.9 0 0 1-1.2 1.6c-1.1.5-2.8-.4-3.3-.7v-1.4a2.1 2.1 0 0 0 .8-1 .4.4 0 0 0-.1-.5c-.2-.3-1.1-.3-1.2-.3a1.8 1.8 0 0 0-1.2.3c0 .1-.1.3 0 .5a1.6 1.6 0 0 0 .8 1v1.6c-.6.3-2.2 1.2-3.4.7a2 2 0 0 1-1.1-1.6V29c0-.1-.1-.1-.1-.2h.1v-.4c.1 0 .1 0 .1-.1a.1.1 0 0 1 .1-.1V28h.7c0-.1.1-.1.1-.2h1.3c0-.1.1-.1.2-.1h.6a5.7 5.7 0 0 1 1.8-.3 6.3 6.3 0 0 1 1.9.3h1.2a.1.1 0 0 0 .1.1h.4a.1.1 0 0 1 .1.1h.6a.1.1 0 0 0 .1.1h.2c0 .1.1.1.1.2h.1c.1.1.1.1.1.2a.1.1 0 0 1 .1.1v.2zm.5-6.8v.9c-.1 1.2-.1 2.4-.1 3.6v.7c0-.1-.1-.1-.1-.2l-.2-.2a.1.1 0 0 0-.1-.1v-.2c-.1 0-.2 0-.2-.1h-.2a.1.1 0 0 0-.1-.1c-.1-.1-.2-.1-.2-.2h-.8a.1.1 0 0 1-.1-.1h-1.3a7.2 7.2 0 0 0-4.1 0H7.9l-.2.2h-.3c0 .1-.1.1-.1.2h-.2V26c0-1.1 0-2.3-.1-3.5v-1a14.9 14.9 0 0 1-.2-1.5h.1a7.3 7.3 0 0 1 5.7-3 6.1 6.1 0 0 1 5.3 2.9h.1a14.9 14.9 0 0 1-.2 2.1zm3.7 4.6a9.3 9.3 0 0 1-2.8 2.3 1.3 1.3 0 0 0-.1-.6v-1.8a20.4 20.4 0 0 1 0-3.5 3.1 3.1 0 0 0 .1-1c.1-.6.1-1.2.2-1.8s2.9 2.5 3.3 4.2a3.1 3.1 0 0 1-.7 2.2zm9-5.4a.9.9 0 0 0-.9.9.9.9 0 1 0 1.8 0 .9.9 0 0 0-.9-.9z"/><circle cx="36.1" cy="22.1" r=".9"/><path d="M33.5 22.4a.5.5 0 0 0-.5.5V25a.5.5 0 0 0 .5.5.6.6 0 0 0 .5-.5v-2.1a.5.5 0 0 0-.5-.5zm.9 5.1a.4.4 0 0 0-.4.4.5.5 0 0 1-1 0 .4.4 0 0 0-.8 0 1.3 1.3 0 0 0 1.3 1.3 1.2 1.2 0 0 0 1.2-1.3c0-.2-.1-.4-.3-.4zm-3.9-7.1c.1.1.2 0 .3-.2l-.3-.3a1.6 1.6 0 0 0-1.8 1.3c0 .1.1.2.2.3h.1a.2.2 0 0 0 .2-.2 1.1 1.1 0 0 1 1.3-.9zm5.5-.5l-.2.3c0 .2.1.3.3.2a1 1 0 0 1 1.2.9l.3.2c.2-.1.3-.2.2-.3a1.6 1.6 0 0 0-1.8-1.3z"/></symbol><symbol id="pet-free" viewBox="0 0 20 20"><defs><style>.cls-1{fill:#231f20}</style></defs><path d="M10.4 13.4a.8.8 0 0 1-.6-.2c-.1-.1-.1-.3-.2-.5v-.2a2.7 2.7 0 0 0-.6-1.7 2.8 2.8 0 0 0-2-.8H5.8l-.2.2h-.1a3.4 3.4 0 0 0-.5 2.3v.2a.7.7 0 0 1-.1.5l-.6.2a2.2 2.2 0 0 0-1.1.5 1.7 1.7 0 0 0-.1 1.9 2.3 2.3 0 0 0 1.3 1 7.7 7.7 0 0 0 2.9.5h.3a8.2 8.2 0 0 0 2.6-.4 2.8 2.8 0 0 0 1.5-1 1.5 1.5 0 0 0-.3-2 2.4 2.4 0 0 0-1-.5zm.5 2a2.9 2.9 0 0 1-1 .6 7.7 7.7 0 0 1-2.6.3 7.3 7.3 0 0 1-2.5-.4l-.9-.6a.6.6 0 0 1 0-.6c.1-.2.4-.2.7-.3a1.7 1.7 0 0 0 1.2-.7 1.8 1.8 0 0 0 .2-1v-.2a1.7 1.7 0 0 1 .3-1.1h.9a1.6 1.6 0 0 1 1.1.5 1.6 1.6 0 0 1 .3 1.1h.1a1.5 1.5 0 0 0 .3.8 2 2 0 0 0 1.2.6l.6.2a.8.8 0 0 1 .1.8z" class="cls-1"/><path d="M3.2 13.4a1.2 1.2 0 0 0 .9-.4 1.2 1.2 0 0 0 .5-1 1.2 1.2 0 0 0-.3-1.1 1.9 1.9 0 0 0-1-.5 1.5 1.5 0 0 0-1.1.4 1.2 1.2 0 0 0-.5 1A1.5 1.5 0 0 0 3 13.4zm-.5-1.6c0-.1.1-.2.2-.3h.3l.3.2a.4.4 0 0 1 .1.3c0 .2 0 .3-.1.4h-.4a.7.7 0 0 1-.4-.6zm2.5-1.7h.1a1.7 1.7 0 0 0 1-.3 1.4 1.4 0 0 0 .5-1 1.5 1.5 0 0 0-1.3-1.6 1.5 1.5 0 0 0-1.7 1.3 1.5 1.5 0 0 0 .4 1.1 1.2 1.2 0 0 0 1 .5zm.1-1.9h.1a.5.5 0 0 1 .4.5c0 .1-.1.2-.2.3h-.7v-.4a.7.7 0 0 1 .4-.4zm3.6 1.9h.2a1.4 1.4 0 0 0 1.4-1.3 1.5 1.5 0 0 0-1.3-1.6 1.4 1.4 0 0 0-1.1.3 1.4 1.4 0 0 0-.5 1 2 2 0 0 0 .3 1.1 1.4 1.4 0 0 0 1 .5zm-.1-1.8h.3a.5.5 0 0 1 .5.5l-.2.2h-.7a.6.6 0 0 1-.1-.4zm2.8 2a1.5 1.5 0 0 0-1.1.4 1.2 1.2 0 0 0-.5 1 1.3 1.3 0 0 0 .3 1 2.1 2.1 0 0 0 1 .6h.1a1.5 1.5 0 0 0 1.5-1.4 1.5 1.5 0 0 0-1.3-1.6zm-.2 2l-.3-.2a.4.4 0 0 1-.1-.3c0-.2 0-.3.1-.4h.4c.3 0 .4.3.4.5a.5.5 0 0 1-.5.4zm5.1-6.5l1.7-1.7a.5.5 0 0 0 0-.7l-.6-.6h-.7l-1.7 1.7-1.7-1.7h-.7l-.5.6a.5.5 0 0 0 0 .7L14 5.8l-1.7 1.7a.5.5 0 0 0 0 .7l.5.5.4.2.3-.2L15.2 7l1.7 1.7.4.2.3-.2.6-.5a.5.5 0 0 0 0-.7z" class="cls-1"/></symbol><symbol id="previous" viewBox="0 0 20 20"><defs><style>.cls-1{fill:#231f20}</style></defs><path d="M12.8 1.6l-1-1a1.1 1.1 0 0 0-1.3 0L1.9 9.3a1 1 0 0 0 0 1.4l8.6 8.7a.9.9 0 0 0 .6.3.9.9 0 0 0 .7-.3l1-1a1.1 1.1 0 0 0 0-1.3L5.7 10l7.1-7.1a1.1 1.1 0 0 0 0-1.3z" class="cls-1"/></symbol><symbol id="sitter" viewBox="0 0 43.5 43.5"><path d="M37.1 23a2.4 2.4 0 0 0-2.3-2.4V16a13 13 0 0 0-2.6-7.7l.7-.7A.7.7 0 0 0 33 7a.7.7 0 0 0-.4-.5c-9.1-4.6-16-5.3-20.5-1.9-7.8 5.8-5.3 21.3-5.2 21.9a1 1 0 0 0 .5.6h.2a.5.5 0 0 0 .5-.3l1.3-1.9v3.4a12.7 12.7 0 1 0 25.4 0v-2.8a2.6 2.6 0 0 0 2.3-2.5zm-15 16.6a11.4 11.4 0 0 1-11.3-11.3V23l4.1-5.9 1 1.6a.5.5 0 0 0 .5.3l.5-.2 3.5-3.7 2.4 2.7a.9.9 0 0 0 .6.3c.2 0 .3-.1.5-.3l7.4-8.4a11.2 11.2 0 0 1 2.1 5.4h-.1a.6.6 0 0 0-.6.6.7.7 0 0 0 .6.7h.2v12.2a11.4 11.4 0 0 1-11.4 11.3zM34.8 24v-1.9a.9.9 0 0 1 .8.9 1 1 0 0 1-.8 1z"/><path d="M17.8 23.8a1.4 1.4 0 0 0-1.4 1.4 1.3 1.3 0 0 0 1.4 1.3 1.3 1.3 0 0 0 1.3-1.3 1.3 1.3 0 0 0-1.3-1.4zm8.2 0a1.3 1.3 0 0 0-1.3 1.4 1.3 1.3 0 0 0 1.3 1.3 1.3 1.3 0 0 0 1.4-1.3 1.4 1.4 0 0 0-1.4-1.4zM22.1 30a.8.8 0 0 0 .8-.7v-3.1a.8.8 0 0 0-.8-.7.7.7 0 0 0-.7.7v3.1a.7.7 0 0 0 .7.7zm-4.4-7.2a.5.5 0 0 0 .6-.5c.1-.3-.2-.5-.5-.6a2.6 2.6 0 0 0-2.9 2 .6.6 0 0 0 .5.6h.1c.2 0 .5-.2.5-.4a1.6 1.6 0 0 1 1.7-1.1zm8.1-1.1c-.3.1-.5.3-.4.6a.5.5 0 0 0 .6.5 1.6 1.6 0 0 1 1.7 1.1.5.5 0 0 0 .5.4h.1a.4.4 0 0 0 .4-.6 2.5 2.5 0 0 0-2.9-2zm-1.5 9.8H20a.9.9 0 0 0-.9.9 3.1 3.1 0 1 0 6.1 0 .9.9 0 0 0-.9-.9z"/><circle cx="27.5" cy="16.6" r=".7"/><circle cx="30.6" cy="16" r=".7"/><path d="M31 18.5a.6.6 0 0 0-.4.8.7.7 0 0 0 .8.4.6.6 0 0 0 .5-.8.7.7 0 0 0-.9-.4zm.1-4.9a.6.6 0 0 0 .5-.8.7.7 0 0 0-.8-.4.6.6 0 0 0-.5.8.7.7 0 0 0 .8.4z"/></symbol><symbol id="twitter" viewBox="0 0 20 20"><path d="M10 19.7a9.4 9.4 0 1 1 9.4-9.4 9.5 9.5 0 0 1-9.4 9.4zm0-17.5a8.1 8.1 0 0 0-8.1 8.1 8.1 8.1 0 0 0 16.2 0A8.1 8.1 0 0 0 10 2.2z"/><path d="M8 12.5h-.1a1.8 1.8 0 0 1-1.6-1.3c-.1-.1-.1-.1 0-.1h.8l-.5-.2a2.2 2.2 0 0 1-.9-1 1.4 1.4 0 0 1-.2-.7h.1l.6.2h.2a1.9 1.9 0 0 1-.6-2.6l.3.3a5.2 5.2 0 0 0 2.2 1.3l1.5.3c.1.1.1.1.1-.1A2 2 0 0 1 11 6.5a2 2 0 0 1 1-.2 1.7 1.7 0 0 1 1.2.5h.4l.9-.4h.1a2.3 2.3 0 0 1-.7 1l.9-.2h.1a.1.1 0 0 0-.1.1 3 3 0 0 1-.8.8v.2a4.7 4.7 0 0 1-.2 1.6 4.7 4.7 0 0 1-.6 1.5 5 5 0 0 1-1.9 1.9 3.6 3.6 0 0 1-1.7.7H7.3l-1-.3-1-.4H6l1.4-.3.5-.4H8z"/></symbol><symbol id="walk" viewBox="0 0 20 20"><path d="M16.3 13.8c0-.7-.7-1.3-1.8-1.4V7.6a2.8 2.8 0 0 0-2.5-3 2.8 2.8 0 0 0-2.5 3v5.2c0 1.1-.7 2-1.5 2s-1.5-.9-1.5-2V8.1c.4-.6 2-3.1 1.8-4.9a2.3 2.3 0 0 0-4.6 0C3.4 5 5.1 7.5 5.5 8.1v4.7a2.7 2.7 0 0 0 2.5 3 2.7 2.7 0 0 0 2.5-3V7.6c0-1.1.7-2 1.5-2s1.5.9 1.5 2v4.7c-1.2.1-2 .7-2 1.5v.5c0 .8.9 1.5 2.2 1.5v.6h-.2c-.1-.3-.3-.5-.5-.5a.6.6 0 0 0-.6.6.4.4 0 0 0 .1.3.4.4 0 0 0-.1.3.5.5 0 0 0 .6.6.5.5 0 0 0 .5-.3h.9a.6.6 0 0 0 .6.3c.3 0 .5-.2.5-.6a.4.4 0 0 0-.1-.3.4.4 0 0 0 .1-.3.6.6 0 0 0-.5-.6.6.6 0 0 0-.6.5H14v-.6c1.3 0 2.3-.6 2.3-1.5v-.5zM4.7 3.3A1.2 1.2 0 0 1 6 2.1a1.3 1.3 0 0 1 1.3 1.2A7.5 7.5 0 0 1 6 7c-.6-1-1.5-2.6-1.3-3.7zm9.9 13.3c0-.2.2-.3.4-.3a.3.3 0 0 1 .3.3.4.4 0 0 1-.1.3.3.3 0 0 1 .1.2.4.4 0 0 1-.3.4c-.2 0-.3-.1-.4-.3h-1.3q-.2.3-.3.3a.4.4 0 0 1-.4-.4.3.3 0 0 0 .1-.2c0-.1-.1-.2-.1-.3s.2-.3.4-.3a.3.3 0 0 1 .3.3h1.3zm.5-2.5a2.5 2.5 0 0 1-2.4 0 1.7 1.7 0 0 1 1.2-.3 1.7 1.7 0 0 1 1.2.3zm-.8 4.9h.1l-.1-.1v.1z"/></symbol><symbol id="x" viewBox="0 0 20 20"><defs><style>.cls-1{fill:#231f20}</style></defs><path d="M12.8 10.3l5.7-5.7a1.4 1.4 0 0 0 .2-.6.8.8 0 0 0-.2-.5l-1.7-1.7a.8.8 0 0 0-1.1 0L10 7.5 4.3 1.8a.8.8 0 0 0-1.1 0L1.5 3.5a.8.8 0 0 0 0 1.1l5.7 5.7L1.5 16a.8.8 0 0 0 0 1.1l1.7 1.6.5.3a.9.9 0 0 0 .6-.3L10 13l5.7 5.7a.9.9 0 0 0 .6.3l.5-.3 1.7-1.6a1.4 1.4 0 0 0 .2-.6.8.8 0 0 0-.2-.5z" class="cls-1"/></symbol><symbol id="yard" viewBox="0 0 20 20"><defs><style>.cls-1{fill:#231f20}</style></defs><path d="M16.8 3.8l-1.2-1.3-.4-.2-.4.2-1.2 1.3-.2.3v1.8h-1.5V4.1a.4.4 0 0 0-.1-.3l-1.3-1.3-.3-.2a.5.5 0 0 0-.4.2L8.5 3.8c0 .1-.1.2-.1.3v1.8H6.8v-2c0-.1-.1-.2-.2-.3L5.4 2.3 5 2.1l-.3.2-1.3 1.3a.4.4 0 0 0-.1.3v12.3a.5.5 0 0 0 .5.5h2.5a.5.5 0 0 0 .5-.5v-2.3h1.6v2.5a.5.5 0 0 0 .5.5h2.5a.5.5 0 0 0 .5-.5v-2.5h1.5v2.5a.5.5 0 0 0 .5.5h2.5a.5.5 0 0 0 .5-.5V4.1a.4.4 0 0 0-.1-.3zm-5.4 9.1h-7v-.4h11.5v.4h-4.5zm-2.5-6h6.9v.4H4.3v-.4h4.6zm3 4.6V8.3h1.5v3.2zm-5.1 0V8.3h1.6v3.2zm2.6-3.2h1.5v3.2H9.4zm-5.1 0h1.5v3.2H4.3zm10.1 3.2V8.3h1.5v3.2zm0-7.2l.8-.7.7.7v1.6h-1.5zm-5 0l.8-.7.7.7v1.6H9.4zm-5.1-.2l.7-.7.8.7v1.8H4.3zm1.5 11.6H4.3v-1.8h1.5zm5.1.2H9.4v-2h1.5zm5 0h-1.5v-2h1.5z" class="cls-1"/></symbol></svg>