<svg xmlns="http://www.w3.org/2000/svg"><symbol id="ball" viewBox="0 0 100 100"><path d="M73.9 13.7h-.2a44.1 44.1 0 0 0-23-6.6 43.6 43.6 0 0 0-22.8 6.5l-.4.2h-.1A43.7 43.7 0 0 0 26.1 87h.1l.7.4a43.2 43.2 0 0 0 23.8 7.1 43.7 43.7 0 0 0 23.2-80.8zm-60.4 37a37.1 37.1 0 0 1 15-29.7c2.5 4.6 6.8 14.8 6.8 29.7s-4.9 24.7-7.6 29.1a37.2 37.2 0 0 1-14.2-29.1zm19.6 32.7c3.3-5.1 8.7-16.1 8.7-32.7s-4.9-27.9-7.7-33.1a35.7 35.7 0 0 1 33.2 0c-2.8 5.2-7.7 16.5-7.7 33.1s5.4 27.6 8.7 32.7A37.5 37.5 0 0 1 50.7 88a37.5 37.5 0 0 1-17.6-4.6zm40.7-3.6c-2.8-4.4-7.7-14.2-7.7-29.1s4.4-25.1 6.8-29.7a36.8 36.8 0 0 1 .9 58.8z"/></symbol><symbol id="apartment" viewBox="0 0 100 100"><path d="M85.8 25.3H55.2V6.5a2.6 2.6 0 0 0-2.5-2.6H13.2a2.6 2.6 0 0 0-2.5 2.6v86.1a2.5 2.5 0 0 0 2.5 2.5h72.6a2.5 2.5 0 0 0 2.6-2.5V27.9a2.6 2.6 0 0 0-2.6-2.6zM50.1 9v16.3h-4.8a2.6 2.6 0 0 0-2.6 2.6v62.2h-6.4a6.1 6.1 0 0 0-3.6-2.9 8.7 8.7 0 0 0-1.4-5.6 9.4 9.4 0 0 0-5.8-3.9 9 9 0 0 0-6.8 1.3 9.5 9.5 0 0 0-2.9 3.1V9zm-2.3 21.4h35.5v55.3a12.2 12.2 0 0 0-23.1.4h-.7a8.7 8.7 0 0 0-7.6 4h-4.1z"/><path d="M52.1 37.5h6.3v6.33h-6.3zm10.2 0h6.3v6.33h-6.3zm10.2 0h6.3v6.33h-6.3zM52.1 47.7h6.3v6.33h-6.3zm10.2 0h6.3v6.33h-6.3zm10.2 0h6.3v6.33h-6.3zM52.1 57.9h6.3v6.33h-6.3zm10.2 0h6.3v6.33h-6.3zm10.2 0h6.3v6.33h-6.3zM52.1 68.1h6.3v6.33h-6.3zm10.2 0h6.3v6.33h-6.3zm10.2 0h6.3v6.33h-6.3zm-51.7-51h6.3v6.33h-6.3zm10.2 0h6.3v6.33H31zM20.8 27.3h6.3v6.33h-6.3zm10.2 0h6.3v6.33H31zM20.8 37.5h6.3v6.33h-6.3zm10.2 0h6.3v6.33H31zM20.8 47.7h6.3v6.33h-6.3zm10.2 0h6.3v6.33H31zM20.8 57.9h6.3v6.33h-6.3zm10.2 0h6.3v6.33H31zM20.8 68.1h6.3v6.33h-6.3zm10.2 0h6.3v6.33H31z"/></symbol><symbol id="child-free" viewBox="0 0 100 100"><path d="M86.7 26.1l8.6-8.6a2.5 2.5 0 0 0 0-3.6L92.5 11a2.7 2.7 0 0 0-3.6 0l-8.7 8.7-8.6-8.7a2.9 2.9 0 0 0-1.8-.7 2.7 2.7 0 0 0-1.8.7l-2.8 2.9a2.5 2.5 0 0 0 0 3.6l8.6 8.6-8.6 8.7a2.5 2.5 0 0 0 0 3.6l2.8 2.8a2.3 2.3 0 0 0 1.8.8 2.5 2.5 0 0 0 1.8-.8l8.6-8.6 8.7 8.6a2.4 2.4 0 0 0 3.6 0l2.8-2.8a2.5 2.5 0 0 0 0-3.6zM65.4 48.2h-.9a27.8 27.8 0 0 0-21.9-15 19.9 19.9 0 0 0 .8-8 26.9 26.9 0 0 0 2.7-7.6 1.5 1.5 0 0 0-1-1.6 1.4 1.4 0 0 0-1.6 1 23.4 23.4 0 0 1-1.5 5.3 5.9 5.9 0 0 0-3.9-2c-3.1-.2-4.4 1.3-4.6 2.9a5.3 5.3 0 0 0 4.2 5.5 4.9 4.9 0 0 0 3.3-.8 24.7 24.7 0 0 1-1 5.3h-.2a28 28 0 0 0-24.8 15h-.6C8.2 48.2 3 52.8 3 58.4s4.4 9.5 9.9 10.2a27.9 27.9 0 0 0 53.7 0c5.7-.5 10.3-4.8 10.3-10.2s-5.2-10.2-11.5-10.2zM38.1 26.1a2.7 2.7 0 0 1-2.1-2.6c.1-.5.7-.6 1.3-.6h.5a3.2 3.2 0 0 1 2.6 1.4c0 .2.1.3.2.5s-1.7 1.5-2.5 1.3zm-25.9 31v.2a23.4 23.4 0 0 0-.3 3.8 14.8 14.8 0 0 0 .1 2.1 5.2 5.2 0 0 1-3.8-4.8c0-2.4 2-4.4 4.8-5a24.5 24.5 0 0 0-.8 3.7zm28.7-18.7a22.7 22.7 0 1 1-23.3 27.7v-.5a23 23 0 0 1-.5-4.5 20.5 20.5 0 0 1 2.1-9l1.1-2.4a22.3 22.3 0 0 1 18.1-11.2m29.5 24.6a13.4 13.4 0 0 0 .1-2 25.3 25.3 0 0 0-1.2-7.7c2.8.5 4.9 2.6 4.9 5a5.2 5.2 0 0 1-3.8 4.7z"/><circle cx="28.4" cy="57.8" r="4.7"/><circle cx="50.6" cy="57.8" r="4.7"/><path d="M46.2 65.6a2.5 2.5 0 0 0-2.6 2.6 4.1 4.1 0 0 1-8.2 0 2.6 2.6 0 0 0-2.6-2.6 2.5 2.5 0 0 0-2.5 2.6 9.2 9.2 0 0 0 18.4 0 2.5 2.5 0 0 0-2.5-2.6z"/></symbol><symbol id="city" viewBox="0 0 100 100"><path d="M21.8 51.1H19v2.7h2.8v-2.7zm0 4.4H19v2.7h2.8v-2.7zm0 4.3H19v2.8h2.8v-2.8zm0 4.4H19v2.7h2.8v-2.7zm0 4.4h-2.7v2.7h2.7v-2.7zm0 4.4h-2.7v2.7h2.7V73zm0 4.4h-2.7v2.7h2.7v-2.7z"/><path d="M89.9 61H74.4V43.7a1.1 1.1 0 0 0-1.1-1.1H58.4V24.2a1 1 0 0 0-1.1-1.1H52v-1.8a1 1 0 0 0-1.1-1h-1.6v-2.4a1.1 1.1 0 0 0-1.1-1.1h-2.8v-6.7a1.1 1.1 0 0 0-1-1.1 1.1 1.1 0 0 0-1.1 1.1v6.7h-3.2a1.1 1.1 0 0 0-1.1 1.1v2.4h-1.4a1 1 0 0 0-1.1 1v1.8h-5.6a1.1 1.1 0 0 0-1.1 1.1v21.7H14.7a1.1 1.1 0 0 0-1.1 1.1v46.8a1.1 1.1 0 0 0 1.1 1.1h75.2a1.1 1.1 0 0 0 1.1-1.1V62.1a1.1 1.1 0 0 0-1.1-1.1zM41.2 19h5.9v1.3h-5.9zm-2.5 3.4h11.1v.7H38.7zM15.8 48.1h18.4v44.6H15.8zm37-4.4v49H36.4V47a1.1 1.1 0 0 0-1.1-1.1H32V25.3h24.3v17.3h-2.4a1.1 1.1 0 0 0-1.1 1.1zm15.6 18.4v30.6H55V44.8h17.2V61h-2.7a1.1 1.1 0 0 0-1.1 1.1zm20.4 30.6H70.6V63.2h18.2z"/><path d="M73.9 66.4h2.7v2.72h-2.7zm4.4 0H81v2.72h-2.7zm4.3 0h2.7v2.72h-2.7zm-8.7 4.4h2.7v2.72h-2.7zm4.4 0H81v2.72h-2.7zm4.3 0h2.7v2.72h-2.7zm-8.7 4.4h2.7v2.72h-2.7zm4.4 0H81v2.72h-2.7zm4.3 0h2.7v2.72h-2.7zm-8.7 4.3h2.7v2.72h-2.7zm4.4 0H81v2.72h-2.7zm4.3 0h2.7v2.72h-2.7zM58 48.8h2.7v2.72H58zm4.4 0h2.7v2.72h-2.7zM58 53.2h2.7v2.72H58zm4.4 0h2.7v2.72h-2.7zm4.4-4.4h2.7v2.72h-2.7zm0 4.4h2.7v2.72h-2.7zM58 57.6h2.7v2.72H58zm4.4 0h2.7v2.72h-2.7zM58 62h2.7v2.72H58zm4.4 0h2.7v2.72h-2.7zM58 66.4h2.7v2.72H58zm4.4 0h2.7v2.72h-2.7zM58 70.7h2.7v2.72H58zm4.4 0h2.7v2.72h-2.7zM58 75.1h2.7v2.72H58zm4.4 0h2.7v2.72h-2.7zM58 79.5h2.7v2.72H58zm4.4 0h2.7v2.72h-2.7zM40 27.5a.5.5 0 0 0-.5.5v58.5a.5.5 0 0 0 .5.5.6.6 0 0 0 .6-.5V28a.6.6 0 0 0-.6-.5zm8.8 0a.6.6 0 0 0-.6.5v58.5a.6.6 0 0 0 .6.5.5.5 0 0 0 .5-.5V28a.5.5 0 0 0-.5-.5zm-4.4 0a.6.6 0 0 0-.6.5v58.5a.6.6 0 0 0 .6.5.5.5 0 0 0 .5-.5V28a.5.5 0 0 0-.5-.5zm-21 23.6h2.7v2.72h-2.7zm4.4 0h2.7v2.72h-2.7zm-4.4 4.4h2.7v2.72h-2.7zm4.4-.1h2.7v2.72h-2.7zm-4.4 4.4h2.7v2.72h-2.7zm4.4 0h2.7v2.72h-2.7zm-4.4 4.4h2.7v2.72h-2.7zm4.4 0h2.7v2.72h-2.7zm-4.3 4.4h2.7v2.72h-2.7zm4.3 0h2.7v2.72h-2.7zM23.5 73h2.7v2.72h-2.7zm4.3 0h2.7v2.72h-2.7zm-4.3 4.4h2.7v2.72h-2.7zm4.3-.1h2.7v2.72h-2.7z"/></symbol><symbol id="dog" viewBox="0 0 100 100"><path d="M49.4 18.5a40.2 40.2 0 0 1 16.1 3.1 23 23 0 0 1 9.1 6.6l.5.7a6.6 6.6 0 0 0 2.2 2.2 54.7 54.7 0 0 1 11.5 10.5 24.3 24.3 0 0 1 4.7 8.1 12.1 12.1 0 0 1-.9 9.3 52.6 52.6 0 0 1-8.8 12.2 16.5 16.5 0 0 1-4.2 3.3 6.6 6.6 0 0 1-3.9.8l-1-.4c-.5-.2-.4-.2-.6.4a27.1 27.1 0 0 1-1.3 3 10.2 10.2 0 0 1-7.6 4.9 14 14 0 0 1-5 .1 1.7 1.7 0 0 0-1 .3 16.2 16.2 0 0 1-7.1 3.4 13.3 13.3 0 0 1-8.1-.9 31.4 31.4 0 0 1-4.4-2.5 1.7 1.7 0 0 0-1.2-.2 15 15 0 0 1-6-.5 10.3 10.3 0 0 1-7.4-7.4c-.1-.3-.1-.5-.5-.2a4.4 4.4 0 0 1-4.3.5 11.2 11.2 0 0 1-4.4-2.7A40.5 40.5 0 0 1 8 63.9a52.9 52.9 0 0 1-2.9-5.2 11.3 11.3 0 0 1 .1-9.5 29.4 29.4 0 0 1 6-9.1 67.7 67.7 0 0 1 11.1-9.6 3 3 0 0 0 .8-.8 19 19 0 0 1 7.2-6.6 32.9 32.9 0 0 1 11-3.9 43.6 43.6 0 0 1 8.1-.7zm22.2 28.6h.1L72 32a2.4 2.4 0 0 0-.5-1.4 19.1 19.1 0 0 0-4.9-4 32.5 32.5 0 0 0-13.9-4.1 39.1 39.1 0 0 0-12.3.9 29.1 29.1 0 0 0-10.1 4.3 14.7 14.7 0 0 0-4.5 5.1c0 .1-.1.2-.1.4s.1 1.8.2 2.7l.3 9.2c.1 3.6.3 7.1.4 10.7s.1 5 .2 7.5v.3a.2.2 0 0 0 .2-.2 20.8 20.8 0 0 1 7.5-5.6 42.2 42.2 0 0 1 10.6-3.3 18.8 18.8 0 0 1 6.3-.5 45.6 45.6 0 0 1 10.3 2.5 23.3 23.3 0 0 1 9.7 6 .1.1 0 0 1 .1.1c0-.1.1-.1.1-.2V47.1zM47.5 73v-3.1c0-.3 0-.5-.3-.6a6.8 6.8 0 0 1-3.3-4.1 4.5 4.5 0 0 1-.1-1.1c.1-1.1.9-1.6 1.8-2a13 13 0 0 1 4.4-.6 9.5 9.5 0 0 1 3.7.8 2.3 2.3 0 0 1 1.2 2.9 7.1 7.1 0 0 1-3.4 4.2.5.5 0 0 0-.3.5v6a.6.6 0 0 0 .3.6l2.8 1.4c3.3 1.4 6.7 2.3 10.3 1.7a6.5 6.5 0 0 0 5.8-4.8 11.3 11.3 0 0 0 .5-3.2 9.3 9.3 0 0 0-1.6-5.8 14.2 14.2 0 0 0-5.1-4.3 34.6 34.6 0 0 0-9.8-3.4c-2.2-.4-4.3-.9-6.6-.4s-4.4.8-6.6 1.4a24.8 24.8 0 0 0-8.6 3.9 11.7 11.7 0 0 0-3.7 4.3 10.8 10.8 0 0 0-.2 7.7 6.2 6.2 0 0 0 4.1 4.2 11.5 11.5 0 0 0 5.8.5 22.7 22.7 0 0 0 8.5-3c.3-.2.5-.4.4-.7zm27.7-18.8c.1 3.2.1 8.8.2 14.4a11.1 11.1 0 0 0 .5 2.5c.1.4.4.7.8.6l1.4-.5 2.9-2.3a51.7 51.7 0 0 0 8.4-11.8 7.8 7.8 0 0 0 .8-5.6 16.6 16.6 0 0 0-3.4-6.6 50.8 50.8 0 0 0-10.9-10.3c0-.1-.2-.1-.3-.1v.3c-.1 5.7-.2 11.4-.4 19.4zm-52.3-1.5h-.1v-2.8l-.6-14.4c0-.1-.1-.2-.1-.3l-.2.2a59.8 59.8 0 0 0-9.7 9.1A21.3 21.3 0 0 0 8.4 51a8.3 8.3 0 0 0 .3 6.9 45.3 45.3 0 0 0 6.1 8.9 24.2 24.2 0 0 0 5.2 4.9l1.5.7c.6.2 1 .1 1.1-.5a5.9 5.9 0 0 0 .5-2.2c0-5.7-.1-11.3-.2-17zm26.9 30.9a10.8 10.8 0 0 0 4.8-1.3l.2-.2h-.3l-4.7-2.3a.4.4 0 0 0-.5 0L44.4 82h-.2c.1.1.1.2.2.2a12.3 12.3 0 0 0 5.4 1.4z"/><path d="M68.5 46.1a1.8 1.8 0 0 1-1.4 1.9 1.6 1.6 0 0 1-2-.9 1.6 1.6 0 0 1-.3-.9 4 4 0 0 0-2.6-3.7l-1.1-.4a1.8 1.8 0 0 1-1.3-2.2 1.9 1.9 0 0 1 2.3-1.3 8.2 8.2 0 0 1 6 5.4l.3 1c0 .4.1.7.1 1.1zM36 38.5a2 2 0 0 1 2 1.5 1.9 1.9 0 0 1-1.2 2.1l-1.3.4a4.1 4.1 0 0 0-2.6 3.8 1.9 1.9 0 0 1-1.8 1.8 1.8 1.8 0 0 1-1.8-1.8 7.6 7.6 0 0 1 5.1-7.2 16.6 16.6 0 0 1 1.6-.6zm22.9 6.1a3.5 3.5 0 1 1 0 6.9 3.5 3.5 0 0 1 0-6.9zm1.9 2.5a.8.8 0 0 0-.7-.8.7.7 0 0 0-.7.7c-.1.4.3.7.7.8a.7.7 0 0 0 .7-.7zm-21.9 4.4a3.5 3.5 0 0 1-3.5-3.5 3.5 3.5 0 0 1 6.9 0 3.5 3.5 0 0 1-3.4 3.5zm1.9-4.4a.9.9 0 0 0-.8-.8.7.7 0 0 0-.7.7.8.8 0 0 0 .7.8.8.8 0 0 0 .8-.7z"/></symbol><symbol id="facebook" viewBox="0 0 100 100"><path d="M50.4 3.8a46.3 46.3 0 1 0 46.3 46.3A46.4 46.4 0 0 0 50.4 3.8zm0 86.1a39.8 39.8 0 1 1 39.8-39.8 39.8 39.8 0 0 1-39.8 39.8z"/><path d="M54.4 34.8a2.2 2.2 0 0 1 2.5-2.2h5.8v-9h-.1c-3.4 0-6.7-.2-10 .1-5.9.5-8.8 4.7-9.2 9.6-.2 2.2-.1 4.5-.1 6.8v.7H38v8.1c0 1.4 0 1.4 1.4 1.4h3.9v26.5h11.1V50.2h6.9c.4 0 .6-.1.7-.6.2-2.3.4-4.7.7-7.1 0-.6.1-1.2.1-1.8h-8.4c0-2-.1-4 0-5.9z"/></symbol><symbol id="food-bowl" viewBox="0 0 100 100"><path d="M83.9 43.8H80a4.4 4.4 0 0 0-.1-3 4.8 4.8 0 0 0-2.7-3.2 5.6 5.6 0 0 0-4.2-.3 4.2 4.2 0 0 0-1.6.9H71a10.2 10.2 0 0 0-11.4-4.4 9.6 9.6 0 0 0-4.6-5.2 10.3 10.3 0 0 0-13 3.6 5.4 5.4 0 0 0-2.8.2 4.8 4.8 0 0 0-2.4 1.4 7.6 7.6 0 0 0-6.4-1.1 7.4 7.4 0 0 0-4.8 6.1 7.5 7.5 0 0 0-2.1.2 6.2 6.2 0 0 0-3.2 2.8 4.5 4.5 0 0 0-.4 2H16l-10.8 24-.2 1.3c0 10 23.3 14.5 45 14.5s45-4.5 45-14.5zM50 77.5c-24 0-37.5-5.4-38.8-8L20 49.9h60l8.8 19.6c-1.4 2.6-14.8 8-38.8 8zm.1-57.4l-.3-.2a3 3 0 0 1 .2 1 2.2 2.2 0 0 1 .1-.8z"/><path d="M45.3 63.4a2.3 2.3 0 0 0 1.4-.4 2.4 2.4 0 0 0 .9-1.5 2.3 2.3 0 0 0-.5-1.8 2.6 2.6 0 0 0-1.5-.9 2.6 2.6 0 0 0-1.7.5 2.4 2.4 0 0 0-.9 1.5 2.5 2.5 0 0 0 .4 1.7 2.6 2.6 0 0 0 1.6.9zm3.2-5.1h.3a2.4 2.4 0 0 0 2.3-2 2.5 2.5 0 0 0-.4-1.7 2.6 2.6 0 0 0-1.6-.9 2.5 2.5 0 0 0-1.7.4 2.4 2.4 0 0 0-.9 1.6 2.2 2.2 0 0 0 .5 1.7 2.4 2.4 0 0 0 1.5.9zm6.2 0h.3a2.4 2.4 0 0 0 2.3-2 2.3 2.3 0 0 0-2-2.6 2.5 2.5 0 0 0-1.7.4 2.4 2.4 0 0 0-.9 1.6 2.5 2.5 0 0 0 .4 1.7 2.6 2.6 0 0 0 1.6.9zm4.5.5a2.6 2.6 0 0 0-1.7.5 2.4 2.4 0 0 0-.9 1.5 2.5 2.5 0 0 0 .4 1.7 2.4 2.4 0 0 0 1.6.9h.3a2.4 2.4 0 0 0 2.3-1.9 2.5 2.5 0 0 0-2-2.7z"/><path d="M55.9 63.2a.8.8 0 0 0 .1-.4c0-2.7-1.8-4.9-4-4.9s-3.9 2.2-3.9 4.9v.5c-2.4.7-3.9 2.1-3.9 3.6s3.5 4.2 8 4.2 8-1.8 8-4.2-1.6-3-4.3-3.7z"/></symbol><symbol id="heart-lines" viewBox="0 0 100 100"><defs><style>.cls-1{fill:#010101}</style></defs><path d="M27.6 20.8c4.6 0 9.7 2.9 15 8.5a10.3 10.3 0 0 0 7.4 3.2h.1a10.6 10.6 0 0 0 7.3-3.3c5-5.6 9.9-8.4 14.6-8.4h1.1c6 .5 10.1 5.5 10.7 6.4 3.1 5.9 1.2 16.6-3.8 21.4l-30 30-30.1-30.1C15 43.7 13.1 33 16.2 27.3c.7-1.1 4.5-5.8 10.2-6.4h1.2m0-10h-2.3c-10 1-16.3 8.7-17.9 11.6-5.3 9.8-2.7 25.3 5.5 33.2l35.3 35.4a2.7 2.7 0 0 0 3.6 0l35.3-35.3c8.2-8 10.8-23.5 5.5-33.3-1.9-3.4-8.9-10.7-18.6-11.7h-2c-7.6 0-15 3.9-22 11.6-7.4-7.7-14.9-11.6-22.4-11.6z" class="cls-1"/></symbol><symbol id="heart" viewBox="0 0 100 100"><defs><style>.cls-1{fill:#010101}</style></defs><path d="M49.7 87.7a2.4 2.4 0 0 1-1.6-.7L15 53.9C7.3 46.5 4.9 32 9.9 22.8c1.5-2.7 7.3-9.8 16.7-10.8 7.8-.9 15.5 2.8 23.1 10.8 7.2-8 14.7-11.6 22.5-10.9s15.6 7.7 17.4 10.9c4.9 9.2 2.5 23.7-5.2 31.1L51.4 87a2.8 2.8 0 0 1-1.7.7z" class="cls-1"/></symbol><symbol id="house" viewBox="0 0 100 100"><path d="M94.3 47.6L53.8 7.1a1.3 1.3 0 0 0-1.8 0L8.2 47.3a1.2 1.2 0 0 0-.3 1.4 1.3 1.3 0 0 0 1.2.8H13v43.7a2.6 2.6 0 0 0 2.6 2.7h71.3a2.6 2.6 0 0 0 2.6-2.7V49.9h3.9a1.3 1.3 0 0 0 1.2-.8 1.4 1.4 0 0 0-.3-1.5zm-10 43h-26V64.4A1.3 1.3 0 0 0 57 63H45.2a1.3 1.3 0 0 0-1.3 1.4v26.2H18.2v-41l66.1.2z"/><path d="M28.1 75.9h6.1a3.1 3.1 0 0 0 3.2-3.1V66a3.2 3.2 0 0 0-3.2-3.2h-6.1a3.2 3.2 0 0 0-3.2 3.2v6.8a3.1 3.1 0 0 0 3.2 3.1zm-1.2-3.1v-2.1H30v3.2h-1.9a1.1 1.1 0 0 1-1.2-1.1zm7.3 1.1h-1.9v-3.2h3.1v2.1a1.2 1.2 0 0 1-1.2 1.1zm1.2-7.9v2.5h-3.1v-3.7h1.9a1.2 1.2 0 0 1 1.2 1.2zm-7.3-1.2H30v3.7h-3.1V66a1.2 1.2 0 0 1 1.2-1.2zm39.6 11.1h6.2a3.1 3.1 0 0 0 3.1-3.1V66a3.1 3.1 0 0 0-3.1-3.2h-6.2a3.1 3.1 0 0 0-3.1 3.2v6.8a3.1 3.1 0 0 0 3.1 3.1zm-1.1-3.1v-2.3h3.2v3.4h-2.1a1.1 1.1 0 0 1-1.1-1.1zm7.3 1.1H72v-3.4h3v2.3a1.1 1.1 0 0 1-1.1 1.1zM75 66v2.3h-3v-3.5h1.9A1.1 1.1 0 0 1 75 66zm-7.3-1.2h2.1v3.5h-3.2V66a1.1 1.1 0 0 1 1.1-1.2z"/></symbol><symbol id="instagram" viewBox="0 0 100 100"><path d="M49.1 6.2A42.9 42.9 0 1 0 92 49.1 42.9 42.9 0 0 0 49.1 6.2zm0 79.7a36.9 36.9 0 1 1 36.8-36.8 36.9 36.9 0 0 1-36.8 36.8z"/><path d="M65.8 28.9H32.4a5.1 5.1 0 0 0-5.1 5v33.5a5.1 5.1 0 0 0 5.1 5.1h33.5a5.1 5.1 0 0 0 5-5.1V33.9a5.1 5.1 0 0 0-5.1-5zM49.1 42.3a8.4 8.4 0 1 1-8.4 8.4 8.5 8.5 0 0 1 8.4-8.4zm16.8 23.5a1.8 1.8 0 0 1-1.7 1.7H34.1a1.7 1.7 0 0 1-1.7-1.7V47.4h3.7a17.5 17.5 0 0 0-.4 3.3 13.4 13.4 0 1 0 26.8 0 12.4 12.4 0 0 0-.4-3.3h3.8zm0-25.1a1.7 1.7 0 0 1-1.7 1.7h-5.1a1.8 1.8 0 0 1-1.7-1.7v-5.1a1.8 1.8 0 0 1 1.7-1.7h5.1a1.7 1.7 0 0 1 1.7 1.7z"/></symbol><symbol id="logo" viewBox="0 0 100 100"><defs><style>.cls-1{fill:#010101}</style></defs><path d="M90.4 28h-5.6v-6H74v6h-8.5V14.7a2.5 2.5 0 0 0-2.5-2.5H36.3a2.5 2.5 0 0 0-2.4 2.5V28h-9v-6H14v6H9a2.4 2.4 0 0 0-2.4 2.4v54.5A2.3 2.3 0 0 0 9 87.2h7.7V27.9h5.7v59.3h54V27.8h6.1v59.4h7.9a2.3 2.3 0 0 0 2.3-2.3V30.4a2.3 2.3 0 0 0-2.3-2.4zM38.8 17.1h21.7V28H38.8zM49.3 78a20.5 20.5 0 1 1 20.4-20.4A20.5 20.5 0 0 1 49.3 78z" class="cls-1"/><path d="M49.3 42a15.6 15.6 0 1 0 15.5 15.6A15.6 15.6 0 0 0 49.3 42zm4.8 9.9a2.5 2.5 0 0 1 1.7-1.1 2.8 2.8 0 0 1 3.3 2.1 2.6 2.6 0 0 1-1.8 3.1h-.4a2.4 2.4 0 0 1-2-.4 2.6 2.6 0 0 1-1.2-1.6 2.6 2.6 0 0 1 .4-2.1zm-6.4-4.2a2.6 2.6 0 0 1 1.7-1.2 2.8 2.8 0 0 1 3.3 2.1 3 3 0 0 1-.4 2.1 2.6 2.6 0 0 1-1.4 1.1h-.4a2.8 2.8 0 0 1-2-.4 2.6 2.6 0 0 1-1.2-1.8 2.4 2.4 0 0 1 .4-1.9zm-6.9 2.4a3 3 0 0 1 1.7-1.2 3.1 3.1 0 0 1 2.1.4 2.8 2.8 0 0 1 .8 3.9 3.6 3.6 0 0 1-1.4 1h-.4a2.7 2.7 0 0 1-2.1-.4 2.5 2.5 0 0 1-1.1-1.7 2.6 2.6 0 0 1 .4-2zm.9 11.4a2.6 2.6 0 0 1-2.1-.4 3 3 0 0 1-1.2-1.7 3.1 3.1 0 0 1 .4-2.1 3.6 3.6 0 0 1 1.8-1.2 3.2 3.2 0 0 1 2.1.4 2.7 2.7 0 0 1 1.1 1.8 2.4 2.4 0 0 1-.4 2 2.8 2.8 0 0 1-1.3 1.1zm11.2 5.8c-5.1 1.8-9.7 1.1-10.6-1.6s.4-3.8 2.9-5.6l-.3-.5c-1-3 .1-6.2 2.5-7.1s5.3.9 6.4 4c0 .1.1.3.1.4 3.2-.3 5.6.7 6.2 2.5s-2.1 6.1-7.2 7.9z" class="cls-1"/></symbol><symbol id="location" viewBox="0 0 100 100"><path d="M76.1 30a26.3 26.3 0 0 0-52.4-.1c-3.4 25.5 22.5 60.8 23.6 62.3a3.2 3.2 0 0 0 5.2 0c1.1-1.5 26.9-36.8 23.6-62.2zM49.9 84.7C43.5 75.1 27.6 49.2 30 30.4a20 20 0 0 1 39.8.4c2.4 18.4-13.5 44.3-19.9 53.9z"/><path d="M49.9 20.7a13.7 13.7 0 1 0 13.6 13.6 13.6 13.6 0 0 0-13.6-13.6zm0 20.9a7.3 7.3 0 1 1 7.2-7.3 7.3 7.3 0 0 1-7.2 7.3z"/></symbol><symbol id="medication" viewBox="0 0 100 100"><path d="M87.4 28.4a23.9 23.9 0 0 0-9.3-16.3 24.5 24.5 0 0 0-34.4 4.5L30 34.4 16.3 52.3a24.5 24.5 0 0 0 38.9 29.9l13.7-17.9 13.7-17.8a24 24 0 0 0 4.8-18.1zm-9 14.9L66.3 59 35.8 35.6l12.1-15.8a19.3 19.3 0 0 1 30.5 23.5z"/></symbol><symbol id="next" viewBox="0 0 100 100"><path d="M76.5 47.3L35.3 6.1a4.3 4.3 0 0 0-6 0L24.5 11a4.2 4.2 0 0 0 0 6l33.8 33.8-33.8 33.8a4.1 4.1 0 0 0 0 5.9l4.8 4.9a4.5 4.5 0 0 0 3 1.3 4.3 4.3 0 0 0 3-1.3l41.2-41.2a4 4 0 0 0 1.1-3.4 4.2 4.2 0 0 0-1.1-3.5z"/></symbol><symbol id="owner" viewBox="0 0 100 100"><path d="M95.3 49.2a3.9 3.9 0 0 0-3.6-3.9v-7.8l.7-.6a6.6 6.6 0 0 0 1.9-4.5 5.7 5.7 0 0 0-.3-1.8c-.2-4-9.1-9.2-10.9-10.3s.3-2.3.3-2.3c-16.7-4.3-23.3 5.6-25.5 10.8a5.2 5.2 0 0 0-1 2.7 1.7 1.7 0 0 0-.1.7 6.8 6.8 0 0 0 1.7 4.3v9.6a4 4 0 0 0 0 7.9v11.2A15.6 15.6 0 0 0 74 80.9h2.4a15.6 15.6 0 0 0 15.5-15.5V53a3.9 3.9 0 0 0 3.4-3.8zm-8.5-13s3.3-2.1 3.6-4.9a4.4 4.4 0 0 0-1.5-3.8c-.2-.1-.2-.4 0-.6a.5.5 0 0 1 .7 0 5.5 5.5 0 0 1 1.7 4.5c-.4 3.2-3.9 5.5-4 5.6H87a.4.4 0 0 1-.4-.2.5.5 0 0 1 .2-.6zM66.1 25.7c2-3.7 6.3-6.1 12.9-7.1.2 0 .5.1.5.4s-.1.5-.4.5c-6.3 1-10.4 3.2-12.2 6.7s.2 9.8.3 9.9a.5.5 0 0 1-.2.6h-.2a.5.5 0 0 1-.5-.3c-.1-.1-2.8-5.6-.2-10.7zm8 10.3a.6.6 0 0 1-.1.7h-.3l-.3-.2c-.2-.2-4-4.6-3.6-8.9a6.4 6.4 0 0 1 2.7-4.4.5.5 0 0 1 .7.1c.1.2.1.5-.1.6a5.5 5.5 0 0 0-2.4 3.8c-.4 4 3.3 8.3 3.4 8.3zm5.5 29.9a2.2 2.2 0 0 1-2.2 2.2h-5a2.2 2.2 0 0 1-2.2-2.2v-2.8a2.2 2.2 0 0 1 2.2-2.2h5a2.2 2.2 0 0 1 2.2 2.2zm12.2-15.2v-1.5H89c.6 6.7-.7 8.6-1.3 9.1H62.6c-.5-.5-1.8-2.4-1.3-9.1h-2.7v2.6a1.5 1.5 0 0 1-1.5-1.5 1.5 1.5 0 0 1 1.4-1.6v.5h2.7V38.5a5.4 5.4 0 0 0 2.2.4H89v10.3h2.7v-1.5a1.4 1.4 0 0 1 1.2 1.5 1.6 1.6 0 0 1-1.1 1.5z"/><path d="M68 47.7a2.2 2.2 0 0 0 0 4.4 2.2 2.2 0 1 0 0-4.4z"/><circle cx="81.2" cy="49.9" r="2.2"/><path d="M75 50.4a1.2 1.2 0 0 0-1.2 1.1v5a1.3 1.3 0 0 0 1.2 1.2 1.2 1.2 0 0 0 1.2-1.2v-5a1.1 1.1 0 0 0-1.2-1.1zm2.1 12.1a.9.9 0 0 0-.9.9 1.2 1.2 0 1 1-2.4 0 .9.9 0 1 0-1.8 0 3 3 0 0 0 3 3 2.9 2.9 0 0 0 3-3 .9.9 0 0 0-.9-.9zM68 45.9a.6.6 0 0 0 .6-.5.5.5 0 0 0-.5-.7 3.7 3.7 0 0 0-4.3 2.9.8.8 0 0 0 .5.7h.1a.6.6 0 0 0 .6-.5 2.4 2.4 0 0 1 3-1.9zm13-1.2a.5.5 0 0 0-.5.7.6.6 0 0 0 .6.5 2.6 2.6 0 0 1 3 1.9.6.6 0 0 0 .6.5h.1a.6.6 0 0 0 .4-.7 3.6 3.6 0 0 0-4.2-2.9zm-52.9-3a21.9 21.9 0 0 1 8.8 1.7 13.1 13.1 0 0 1 5 3.6c.1.2.2.3.2.4a3.7 3.7 0 0 0 1.3 1.2 33.6 33.6 0 0 1 6.2 5.7 15 15 0 0 1 2.6 4.4 6.5 6.5 0 0 1-.5 5.1 31.6 31.6 0 0 1-4.8 6.7 7.6 7.6 0 0 1-2.3 1.7 3.3 3.3 0 0 1-2.1.5l-.6-.2c-.2-.1-.2-.1-.3.2a11.1 11.1 0 0 1-.7 1.6 5.6 5.6 0 0 1-4.1 2.7 8.2 8.2 0 0 1-2.7.1.6.6 0 0 0-.6.1 9.5 9.5 0 0 1-3.9 1.9 6.7 6.7 0 0 1-4.4-.6 14.1 14.1 0 0 1-2.4-1.3h-.7a8.7 8.7 0 0 1-3.2-.3 5.4 5.4 0 0 1-4-4c-.1-.2-.1-.3-.3-.1a2.8 2.8 0 0 1-2.4.3 7 7 0 0 1-2.3-1.5 25.3 25.3 0 0 1-4.3-5c-.6-1-1.1-2-1.6-2.9a6.3 6.3 0 0 1 .1-5.2 15 15 0 0 1 3.3-5 33 33 0 0 1 6-5.2c.2-.1.3-.3.4-.4a11.5 11.5 0 0 1 3.9-3.7 21.4 21.4 0 0 1 6-2.1 34.2 34.2 0 0 1 4.4-.4zm12.1 15.6h.1c.1-2.7.1-5.4.2-8.2a1.3 1.3 0 0 0-.3-.8 9 9 0 0 0-2.7-2.1 16.8 16.8 0 0 0-7.5-2.3 22.3 22.3 0 0 0-6.8.5 15.4 15.4 0 0 0-5.4 2.4 7.2 7.2 0 0 0-2.5 2.7v1.7c.1 1.7.2 3.4.2 5.1s.2 3.8.2 5.7.1 2.8.1 4.1v.2h.2a9.9 9.9 0 0 1 4-3 20.5 20.5 0 0 1 5.8-1.8 9.8 9.8 0 0 1 3.4-.3 22.4 22.4 0 0 1 5.7 1.3 12.9 12.9 0 0 1 5.2 3.3h.1v-8.5zM27.1 71.4v-1.7a.4.4 0 0 0-.1-.3 3.9 3.9 0 0 1-1.8-2.2 1.3 1.3 0 0 1-.1-.6 1.4 1.4 0 0 1 1-1.1 6.6 6.6 0 0 1 2.4-.3 4.8 4.8 0 0 1 2 .4 1.2 1.2 0 0 1 .6 1.6 3.8 3.8 0 0 1-1.8 2.3c-.1 0-.2.2-.2.3V73c0 .2.1.3.2.3l1.5.8a9.9 9.9 0 0 0 5.6 1 3.8 3.8 0 0 0 3.2-2.7 8.6 8.6 0 0 0 .3-1.7 5.2 5.2 0 0 0-.9-3.2 7.9 7.9 0 0 0-2.8-2.3 17.8 17.8 0 0 0-5.3-1.9 10.9 10.9 0 0 0-3.6-.2l-3.6.8A13.3 13.3 0 0 0 19 66a5.2 5.2 0 0 0-2 2.4 5.3 5.3 0 0 0-.1 4.1 3.4 3.4 0 0 0 2.2 2.3 6.9 6.9 0 0 0 3.2.3 12.6 12.6 0 0 0 4.6-1.6c.2-.1.3-.2.2-.4zm15.1-10.2c0 1.7.1 4.8.1 7.8a5.8 5.8 0 0 0 .3 1.4c0 .2.2.4.4.3s.6-.1.8-.3a8.8 8.8 0 0 0 1.5-1.2 29.3 29.3 0 0 0 4.7-6.4 4.7 4.7 0 0 0 .4-3.1 9 9 0 0 0-1.9-3.6 28.6 28.6 0 0 0-5.9-5.6h-.2v.2c0 3-.1 6.1-.2 10.5zm-28.5-.8h-.1a7.5 7.5 0 0 0 0-1.5l-.3-7.9v-.2a.1.1 0 0 1-.1.1 28 28 0 0 0-5.3 5 11.7 11.7 0 0 0-2.1 3.6 4.4 4.4 0 0 0 .2 3.7 26.3 26.3 0 0 0 3.3 4.9 11.6 11.6 0 0 0 2.8 2.6l.9.4c.3.1.5.1.6-.3a5 5 0 0 0 .2-1.2c0-3.1 0-6.1-.1-9.2zm14.7 16.8a6.3 6.3 0 0 0 2.6-.7h.1a.1.1 0 0 1-.1-.1l-2.7-1.2h-.2l-2.7 1.2c0 .1 0 .1-.1.1h.1a7.3 7.3 0 0 0 3 .7z"/><path d="M38.6 56.8a1 1 0 0 1-.8 1 .9.9 0 0 1-1.1-.5.7.7 0 0 1-.1-.5 2.4 2.4 0 0 0-1.5-2l-.6-.2a1 1 0 0 1 .5-1.9 4.5 4.5 0 0 1 3.4 3 4.3 4.3 0 0 1 .1.5 1.3 1.3 0 0 0 .1.6zm-17.8-4.1a1 1 0 0 1 .5 1.9l-.7.2a2.2 2.2 0 0 0-1.4 2.1 1.1 1.1 0 0 1-1 1 1 1 0 0 1-1-1 4.3 4.3 0 0 1 2.8-4zM33.3 56a1.8 1.8 0 0 1 1.9 1.8 1.8 1.8 0 0 1-1.9 1.9 1.8 1.8 0 0 1-1.8-1.8 1.8 1.8 0 0 1 1.8-1.9zm1.1 1.3a.4.4 0 0 0-.8 0 .4.4 0 0 0 .4.4.4.4 0 0 0 .4-.4zm-12 2.4a1.9 1.9 0 1 1 0-3.7 1.8 1.8 0 0 1 1.9 1.8 1.9 1.9 0 0 1-1.9 1.9zm1-2.4c0-.2-.1-.4-.3-.4a.4.4 0 0 0-.4.4c-.1.2.1.4.3.4a.4.4 0 0 0 .4-.4z"/></symbol><symbol id="paw-lines" viewBox="0 0 100 100"><path d="M16.8 54.2a11.1 11.1 0 0 0 6.6-2.2 10.9 10.9 0 0 0 4.3-7.3 11.1 11.1 0 0 0-2.2-8.2 10.8 10.8 0 0 0-15.4-2.1 10.5 10.5 0 0 0-4.3 7.2 11.2 11.2 0 0 0 2.1 8.2 10.9 10.9 0 0 0 7.3 4.3zm-3.2-11.5a3.1 3.1 0 0 1 3.1-2.7h.5a3.1 3.1 0 0 1 2.7 3.6 2.8 2.8 0 0 1-1.2 2.1 2.9 2.9 0 0 1-2.4.6 3.1 3.1 0 0 1-2.7-3.6zm18.5-13.2h1.5a11.1 11.1 0 0 0 6.7-2.3 11 11 0 0 0 4.2-7.2 10.3 10.3 0 0 0-2.1-8.1 10.7 10.7 0 0 0-7.3-4.3A10.3 10.3 0 0 0 27 9.7a11.1 11.1 0 0 0-2.2 15.5 11.7 11.7 0 0 0 7.3 4.3zM31.7 16a2.6 2.6 0 0 1 1.9-.7h.5a3.3 3.3 0 0 1 2.7 3.7 3.2 3.2 0 0 1-6.4-.9 3.3 3.3 0 0 1 1.3-2.1zm29.8 13.5h1.6a10.6 10.6 0 0 0 6.6-2.3A10.7 10.7 0 0 0 74 20a11 11 0 0 0-9.4-12.4 10.4 10.4 0 0 0-8.2 2.1 10.9 10.9 0 0 0-4.3 7.3 11.5 11.5 0 0 0 2.1 8.2 11.7 11.7 0 0 0 7.3 4.3zM61.1 16a2.8 2.8 0 0 1 1.9-.7h.5a3.3 3.3 0 0 1 2.7 3.7 3.2 3.2 0 0 1-3.6 2.7 3.2 3.2 0 0 1-2.7-3.6 2.8 2.8 0 0 1 1.2-2.1zm22 16.2a11.2 11.2 0 0 0-12.5 9.4 10.8 10.8 0 0 0 2.2 8.2 10.7 10.7 0 0 0 7.3 4.3h1.5a11.1 11.1 0 0 0 10.9-9.5 11.2 11.2 0 0 0-9.4-12.4zm-2 14.1a3.2 3.2 0 0 1-2.7-3.6 3.5 3.5 0 0 1 1.2-2.1 3.7 3.7 0 0 1 2-.7h.4a3.2 3.2 0 1 1-.9 6.3z"/><path d="M67.6 52.9c0-.6.1-1.2.1-1.7 0-13-8.4-23.5-18.8-23.5S30.1 38.2 30.1 51.2c0 .7.1 1.5.1 2.2-11.6 3.5-18.4 9.9-18.4 17.4 0 11.5 16.3 20.1 38 20.1s38-8.6 38-20.1c0-7.9-7.7-14.6-20.2-17.9zM49.8 83.1c-17.3 0-30.2-6.5-30.2-12.3 0-4.1 6.5-8.5 15.9-10.7a3.9 3.9 0 0 0 3-4.6 17.2 17.2 0 0 1-.5-4.3c0-8.5 5-15.7 10.9-15.7s10.9 7.2 10.9 15.7a16.7 16.7 0 0 1-.4 3.9 4 4 0 0 0 3.1 4.6C74 62 80 67 80 70.8c0 5.8-13 12.3-30.2 12.3z"/></symbol><symbol id="paw" viewBox="0 0 100 100"><path d="M18.9 54.2a10.4 10.4 0 0 0 6.3-2.1 10.8 10.8 0 0 0 4.1-6.9 10.4 10.4 0 0 0-2.1-7.8 10.2 10.2 0 0 0-6.9-4.1 10.3 10.3 0 0 0-7.8 2 10.8 10.8 0 0 0-4.1 6.9 10.5 10.5 0 0 0 9 11.9zm14.6-23.6H35a10.6 10.6 0 0 0 6.3-2.1 10.8 10.8 0 0 0 4.1-7 10.7 10.7 0 0 0-2.1-7.7 10.4 10.4 0 0 0-6.9-4.1 9.9 9.9 0 0 0-7.8 2 10.4 10.4 0 0 0-4.1 6.9 10.3 10.3 0 0 0 2 7.8 10 10 0 0 0 7 4.2zm28.1 0H63a10.3 10.3 0 0 0 10.4-9.1 10.5 10.5 0 0 0-8.9-11.7 10.4 10.4 0 0 0-11.9 8.9 10.3 10.3 0 0 0 2 7.8 10 10 0 0 0 7 4.1zm20.5 2.7a10 10 0 0 0-7.8 2 10.8 10.8 0 0 0-4.1 6.9 10.4 10.4 0 0 0 2.1 7.8 9.8 9.8 0 0 0 6.9 4.1h1.5a10.5 10.5 0 0 0 1.4-20.9z"/><path d="M67.3 52.9a8.1 8.1 0 0 0 .1-1.6c0-12.3-8-22.3-17.9-22.3S31.6 39 31.6 51.3a15.5 15.5 0 0 0 .1 2.2c-11.1 3.4-17.6 9.4-17.6 16.6 0 10.9 15.6 19.1 36.2 19.1S86.6 81 86.6 70.1c0-7.6-7.3-13.9-19.3-17.2z"/></symbol><symbol id="pet-free" viewBox="0 0 100 100"><path d="M11.5 67.8a8 8 0 0 0 7.9-6.9 8.2 8.2 0 0 0-1.5-5.9 7.6 7.6 0 0 0-5.3-3 7.4 7.4 0 0 0-5.9 1.5 7.9 7.9 0 0 0-3.1 5.2 7.8 7.8 0 0 0 1.6 5.9 7.7 7.7 0 0 0 5.2 3.1zm-2.3-8.3a2.4 2.4 0 0 1 2.3-2h.3a2.4 2.4 0 0 1 2 2.7 2.4 2.4 0 0 1-.9 1.5 2.1 2.1 0 0 1-1.7.4 2.2 2.2 0 0 1-2-2.6zm13.4-9.6h1.1a7.7 7.7 0 0 0 4.8-1.6 7.9 7.9 0 0 0 3.1-5.2 7.8 7.8 0 0 0-1.6-5.8 7.7 7.7 0 0 0-5.2-3.1 7.4 7.4 0 0 0-5.9 1.5 8.1 8.1 0 0 0-3.1 5.3 8.2 8.2 0 0 0 1.5 5.9 7.6 7.6 0 0 0 5.3 3zm-.3-9.7a2.4 2.4 0 0 1 1.4-.5h.3a2.2 2.2 0 0 1 2 2.6 2.6 2.6 0 0 1-2.6 2 2.3 2.3 0 0 1-1.1-4.2zm21.5 9.7H45a7.4 7.4 0 0 0 4.7-1.6A7.9 7.9 0 0 0 46 34.2a7.4 7.4 0 0 0-5.9 1.5A8.1 8.1 0 0 0 37 41a8.3 8.3 0 0 0 1.6 5.9 7.4 7.4 0 0 0 5.2 3zm-.3-9.7a2.4 2.4 0 0 1 1.4-.5h.3a2.2 2.2 0 0 1 2 2.6 2.4 2.4 0 0 1-2.6 2 2.5 2.5 0 0 1-2-2.7 2.4 2.4 0 0 1 .9-1.4zm15.9 11.7A7.9 7.9 0 0 0 52 64.6a7.7 7.7 0 0 0 5.2 3.1h1.1a8 8 0 0 0 1.1-15.9zM58 62.1a2.2 2.2 0 0 1-2-2.6 2.4 2.4 0 0 1 2.3-2h.3a2.4 2.4 0 0 1 2 2.7 2.3 2.3 0 0 1-2.6 1.9z"/><path d="M48.2 66.8c0-.4.1-.8.1-1.2 0-9.3-6.1-16.9-13.6-16.9s-13.5 7.6-13.5 16.9a8.1 8.1 0 0 0 .1 1.6c-8.4 2.6-13.4 7.2-13.4 12.6 0 8.3 11.8 14.5 27.4 14.5s27.5-6.2 27.5-14.5c0-5.7-5.5-10.5-14.6-13zM35.3 88.7c-12.4 0-21.7-4.7-21.7-8.9s4.7-6.1 11.5-7.7a2.9 2.9 0 0 0 2.1-3.4 11.5 11.5 0 0 1-.4-3.1c0-6.1 3.6-11.3 7.9-11.3s7.9 5.2 7.9 11.3a13.6 13.6 0 0 1-.3 2.9 2.8 2.8 0 0 0 2.2 3.3c8.3 1.7 12.6 5.3 12.6 8 0 4.2-9.3 8.9-21.8 8.9zm51.3-64.9l9.5-9.5a2.8 2.8 0 0 0 0-4L93 7.2a2.5 2.5 0 0 0-2-.9 2.7 2.7 0 0 0-2 .9l-9.5 9.5-9.6-9.5a2.5 2.5 0 0 0-2-.9 2.8 2.8 0 0 0-2 .9l-3.1 3.1a2.8 2.8 0 0 0 0 4l9.6 9.5-9.6 9.5a2.8 2.8 0 0 0 0 4l3.1 3.1a2.8 2.8 0 0 0 2 .9 2.5 2.5 0 0 0 2-.9l9.6-9.5 9.5 9.5a2.7 2.7 0 0 0 2 .9 2.5 2.5 0 0 0 2-.9l3.1-3.1a2.8 2.8 0 0 0 0-4z"/></symbol><symbol id="previous" viewBox="0 0 100 100"><path d="M73.1 10.3l-4.8-4.8a4.2 4.2 0 0 0-6 0l-40.9 41a4 4 0 0 0-1.2 3.4 4 4 0 0 0 1.2 3.4l40.9 41a4.5 4.5 0 0 0 3 1.3 4.3 4.3 0 0 0 3-1.3l4.8-4.8a4.2 4.2 0 0 0 0-6L39.5 49.9l33.6-33.6a4.2 4.2 0 0 0 0-6z"/></symbol><symbol id="sitter" viewBox="0 0 100 100"><path d="M86.2 52.2a5.9 5.9 0 0 0-5.3-5.8V35.7a29.3 29.3 0 0 0-6.2-18.1l1.6-1.8a1.6 1.6 0 0 0 .4-1.3 1.9 1.9 0 0 0-.9-1.2C54.3 2.5 38 1 27.4 8.8 9 22.4 15 58.9 15.2 60.4a1.5 1.5 0 0 0 1.3 1.3h.3a1.7 1.7 0 0 0 1.3-.7l3.1-4.4v7.9a29.9 29.9 0 0 0 59.7 0v-6.6a5.8 5.8 0 0 0 5.3-5.7zm-35.1 39a26.7 26.7 0 0 1-26.7-26.6V52.1L34 38.2l2.3 3.8a1.5 1.5 0 0 0 1.2.7 1.6 1.6 0 0 0 1.4-.5l8.2-8.7 5.6 6.5a1.6 1.6 0 0 0 1.2.6 1.6 1.6 0 0 0 1.3-.6l17.4-19.9a25.8 25.8 0 0 1 5 12.8h-.2a1.6 1.6 0 0 0-1.6 1.6 1.6 1.6 0 0 0 1.6 1.5h.3v28.6a26.6 26.6 0 0 1-26.6 26.6zm29.8-36.8V50a2.2 2.2 0 0 1 0 4.4z"/><path d="M40.8 54a3.2 3.2 0 0 0-3.3 3.2 3.3 3.3 0 0 0 3.3 3.3 3.2 3.2 0 0 0 3.2-3.3 3.2 3.2 0 0 0-3.2-3.2zm19.5 0a3.2 3.2 0 0 0-3.3 3.2 3.3 3.3 0 0 0 3.3 3.3 3.2 3.2 0 0 0 3.2-3.3 3.2 3.2 0 0 0-3.2-3.2zm-9.2 14.7a1.8 1.8 0 0 0 1.7-1.7v-7.3a1.8 1.8 0 0 0-1.7-1.8 1.8 1.8 0 0 0-1.8 1.8V67a1.8 1.8 0 0 0 1.8 1.7zm-10.5-17a1.3 1.3 0 0 0 1.5-1.1 1.2 1.2 0 0 0-1.2-1.4 5.9 5.9 0 0 0-6.8 4.5 1.3 1.3 0 0 0 1.1 1.5h.2a1.4 1.4 0 0 0 1.3-1.1 3.2 3.2 0 0 1 3.9-2.4zm19.2-2.5a1.2 1.2 0 0 0-1.1 1.4 1.2 1.2 0 0 0 1.4 1.1c3.1-.3 3.8 2 3.9 2.5a1.4 1.4 0 0 0 1.3 1.1h.3a1.4 1.4 0 0 0 1-1.6 5.9 5.9 0 0 0-6.8-4.5zm-3.7 23.1H46a2.1 2.1 0 0 0-2.1 2.1 7.2 7.2 0 0 0 14.3 0 2.1 2.1 0 0 0-2.1-2.1z"/><circle cx="63.8" cy="37.2" r="1.5"/><circle cx="70.9" cy="35.7" r="1.5"/><path d="M72 41.4a1.7 1.7 0 0 0-1.1 2 1.6 1.6 0 0 0 2 1 1.5 1.5 0 0 0 1-1.9 1.6 1.6 0 0 0-1.9-1.1zm.3-11.3a1.5 1.5 0 0 0 1-1.9 1.6 1.6 0 0 0-1.9-1.1 1.7 1.7 0 0 0-1.1 2 1.6 1.6 0 0 0 2 1z"/></symbol><symbol id="twitter" viewBox="0 0 100 100"><path d="M50 94.9a45.8 45.8 0 1 1 45.8-45.8A45.8 45.8 0 0 1 50 94.9zm0-85.2a39.4 39.4 0 1 0 39.4 39.4A39.5 39.5 0 0 0 50 9.7z"/><path d="M40.4 60.1h-.5a9.5 9.5 0 0 1-8.1-6.1c-.3-.5-.2-.6.3-.6h2.6l.9-.2-2.1-.9a10 10 0 0 1-4.6-4.9 8.9 8.9 0 0 1-.8-3.3c0-.6.1-.6.6-.4a7.5 7.5 0 0 0 3 .9h.6c-4.3-3.6-5-7.9-3-12.8h.2l1.5 1.3a26.6 26.6 0 0 0 10.8 7 25.1 25.1 0 0 0 7.2 1.6c.7 0 .7 0 .6-.6a9.9 9.9 0 0 1 5.5-10.5 9.6 9.6 0 0 1 4.7-.8 8.2 8.2 0 0 1 5.8 2.3 1.9 1.9 0 0 0 2.1.4l4.4-1.7.5-.2a12.4 12.4 0 0 1-3.7 5 14.7 14.7 0 0 0 4.7-1.1h.1a.8.8 0 0 1-.2.4 21.1 21.1 0 0 1-3.9 4 .8.8 0 0 0-.4.8 34 34 0 0 1-1 7.8 28.3 28.3 0 0 1-3.1 7.5 26.2 26.2 0 0 1-9.4 9.6 26.6 26.6 0 0 1-8.2 3.3 24.7 24.7 0 0 1-5.4.5 42.6 42.6 0 0 1-5.1-.2 30.4 30.4 0 0 1-5.2-1.3 52.4 52.4 0 0 1-4.8-2.3c-.2 0-.3-.2-.4-.4h3.8a19.8 19.8 0 0 0 6.8-2l2.7-1.6.5-.3z"/></symbol><symbol id="walk" viewBox="0 0 100 100"><path d="M70 81.9v-2.8c6.9-.1 12-3.4 12-7.7a5 5 0 0 0-.2-1.2A5 5 0 0 0 82 69c0-3.8-3.9-6.7-9.3-7.6V37.2c0-8.4-5.8-15.2-12.8-15.2s-12.8 6.8-12.8 15.2v26.7c0 5.5-3.5 10.2-7.7 10.2s-7.7-4.7-7.7-10.2V39.6c2.1-3 10.4-15.6 9.2-25a11.8 11.8 0 0 0-23.5-.1c-1.2 9.5 7 22 9.2 25.1v24.3c0 8.4 5.7 15.3 12.8 15.3s12.8-6.9 12.8-15.3V37.2c0-5.5 3.5-10.1 7.7-10.1s7.7 4.6 7.7 10.1v24.1c-6.1.6-10.5 3.7-10.5 7.7a5 5 0 0 0 .2 1.2 5 5 0 0 0-.2 1.2c0 4.2 5 7.5 11.6 7.7v2.8m0 0h-1.2a2.9 2.9 0 0 0-2.8-2.1 3 3 0 0 0-3 2.9 2.8 2.8 0 0 0 .5 1.6 3.3 3.3 0 0 0-.5 1.6 3 3 0 0 0 3 3 2.8 2.8 0 0 0 2.6-1.7h5a2.8 2.8 0 0 0 2.6 1.6 2.9 2.9 0 0 0 3-2.9 2.5 2.5 0 0 0-.5-1.6 2.2 2.2 0 0 0 .5-1.6 2.9 2.9 0 0 0-3-2.9 2.9 2.9 0 0 0-2.8 2.1H70M22.5 15a6.7 6.7 0 0 1 13.3.2c.8 5.7-3.5 14-6.6 19-3.2-5-7.4-13.3-6.7-19.2zm50.7 68.1v-.5a1.7 1.7 0 0 1 1.7-1.6 1.7 1.7 0 0 1 1.7 1.7 1.6 1.6 0 0 1-.4 1.2l-.5.4.5.5a1.5 1.5 0 0 1 .4 1.1 1.7 1.7 0 0 1-1.7 1.7 1.5 1.5 0 0 1-1.5-1.2v-.5h-7v.5a1.6 1.6 0 0 1-1.6 1.2 1.7 1.7 0 0 1-1.8-1.7 1.6 1.6 0 0 1 .5-1.1l.3-.5-.3-.4a1.7 1.7 0 0 1-.5-1.2 1.8 1.8 0 0 1 1.7-1.7 1.6 1.6 0 0 1 1.6 1.6v.5zm2.5-12.9a11 11 0 0 1-6.1 1.5 11.4 11.4 0 0 1-6.2-1.5 11.3 11.3 0 0 1 6.2-1.6 10.9 10.9 0 0 1 6.1 1.6zm-3.9 24.9h.1-.1z"/></symbol><symbol id="x" viewBox="0 0 100 100"><path d="M64 50.5l28.3-28.3a4.3 4.3 0 0 0 1.1-2.8 3.9 3.9 0 0 0-1.1-2.7L84 8.4a3.9 3.9 0 0 0-5.5 0L50.2 36.7 21.9 8.4a3.8 3.8 0 0 0-5.4 0l-8.4 8.3a3.9 3.9 0 0 0 0 5.5l28.3 28.3L8.1 78.8a3.8 3.8 0 0 0 0 5.4l8.4 8.4a3.9 3.9 0 0 0 2.7 1.1 4 4 0 0 0 2.7-1.1l28.3-28.4 28.3 28.4a4.3 4.3 0 0 0 2.8 1.1 4.3 4.3 0 0 0 2.7-1.1l8.3-8.4a3.9 3.9 0 0 0 0-5.4z"/></symbol><symbol id="yard" viewBox="0 0 100 100"><path d="M89.6 18.7l-7.4-7.6a2.7 2.7 0 0 0-2.1-.9 2.7 2.7 0 0 0-2.1.9l-7.4 7.6a2.7 2.7 0 0 0-.9 2v10.6h-9V20.7a2.7 2.7 0 0 0-.9-2l-7.3-7.6a2.9 2.9 0 0 0-2.1-.9 2.7 2.7 0 0 0-2.1.9l-7.5 7.6a3 3 0 0 0-.8 2v10.6h-9.7V19.5a3 3 0 0 0-.8-2l-7.4-7.6A2.9 2.9 0 0 0 20 9a2.7 2.7 0 0 0-2.1.9l-7.5 7.6a3 3 0 0 0-.8 2v73.9a2.9 2.9 0 0 0 3 3h14.7a2.9 2.9 0 0 0 3-3V78.7H40v14.7a2.9 2.9 0 0 0 2.9 3h14.8a3 3 0 0 0 3-3V78.7h9v14.7a2.9 2.9 0 0 0 3 3h14.7a2.9 2.9 0 0 0 3-3V20.7a3 3 0 0 0-.8-2zM57.7 72.8H16.3v-2.4h68.1v2.4H57.7zM42.9 37.2h40.7v2.4H15.5v-2.4h27.4zm17.8 27.3v-19h9v19zm-30.4 0v-19H40v19zm15.6-19h8.9v19h-8.9zm-30.4 0h8.9v19h-8.9zm60.1 19v-19h8.9v19zm0-42.6l4.5-4.5 4.4 4.5v9.4h-8.9zm-29.7 0l4.4-4.5 4.5 4.5v9.4h-8.9zm-30.4-1.2l4.5-4.5 4.4 4.5v10.6h-8.9zm8.9 69.8h-8.9V78.7h8.9zm30.4 0h-8.9V78.7h8.9zm29.7 0h-8.9V78.7h8.9z"/></symbol><symbol id="calendar" viewBox="0 0 100 100"><path d="M86.3 19.5H78V9.6a3.4 3.4 0 0 0-3.4-3.3h-8.3A3.3 3.3 0 0 0 63 9.6v9.9H38V9.6a3.3 3.3 0 0 0-3.3-3.3h-8.3a3.3 3.3 0 0 0-3.3 3.3v9.9H15a3.3 3.3 0 0 0-3.3 3.3v69a3.3 3.3 0 0 0 3.3 3.3h71.3a3.2 3.2 0 0 0 3.3-3.3v-69a3.3 3.3 0 0 0-3.3-3.3zM69.7 13h1.6v5.3h-1.6zm-40 0h1.7v5.3h-1.7zM83 26.2v4.7H18.4v-4.7zm0 62.3H18.4v-51H83z"/><path d="M26 45h8.3v8.26H26zm14.4 0h8.3v8.26h-8.3zm13.3 0H62v8.26h-8.3zM67 45h8.3v8.26H67zM26 57.8h8.3v8.26H26zm14.4 0h8.3v8.26h-8.3zm13.3 0H62v8.26h-8.3zm13.3 0h8.3v8.26H67zM26 70.7h8.3v8.26H26zm14.4 0h8.3v8.26h-8.3zm13.3 0H62v8.26h-8.3zm13.3 0h8.3v8.26H67z"/></symbol><symbol id="book" viewBox="0 0 100 100"><path d="M95.6 20.7a6.4 6.4 0 0 1-.2-.7c0-.2-.1-.3-.3-.5l-.3-.6-.5-.4c-.2-.1-.2-.3-.4-.3s-20.7-11.5-42.7-.8c-21.9-10.7-41.8.3-42.6.8s-.2.2-.4.3l-.5.4-.3.6a.5.5 0 0 0-.3.5 6.4 6.4 0 0 1-.2.7c0 .2-.1.3-.1.5V86a3.5 3.5 0 0 0 1.8 3 3.3 3.3 0 0 0 1.7.4A3.3 3.3 0 0 0 12 89c.2-.1 18.4-10.3 37.6 0a2.7 2.7 0 0 0 1.2.3h1.1a2.9 2.9 0 0 0 1-.3c19.1-10.2 36.9-.4 37.6 0a3.4 3.4 0 0 0 3.4 0 3.5 3.5 0 0 0 1.8-3V21.2c0-.2-.1-.3-.1-.5zm-81.9 60V23.3c4.8-2.1 19-7.1 34.1 0v57.3a48.1 48.1 0 0 0-34.1.1zm41-.1V23.3c15.2-7.2 29.3-2.2 34.1 0v57.4a48.1 48.1 0 0 0-34.1-.1z"/></symbol></svg>