<svg xmlns="http://www.w3.org/2000/svg"><symbol id="bone-empty" viewBox="0 0 100 100"><path d="M30.9 96.5a13.2 13.2 0 0 1-9.4-3.9 13.4 13.4 0 0 1-3.9-9.5v-.7h-.7a13 13 0 0 1-9.5-3.9 13.2 13.2 0 0 1-3.9-9.4 13.6 13.6 0 0 1 3.9-9.5 13.4 13.4 0 0 1 16.3-2l33.9-33.9a13.6 13.6 0 0 1 2-16.3 13.6 13.6 0 0 1 9.5-3.9 13.2 13.2 0 0 1 9.4 3.9 13 13 0 0 1 3.9 9.5v.7a13.4 13.4 0 1 1 .8 26.7 13.8 13.8 0 0 1-6.9-1.9L42.4 76.3a13.3 13.3 0 0 1-11.5 20.2zM20.8 76.7a3.1 3.1 0 0 1 1.8.7 2.5 2.5 0 0 1 .5 2.7 10.5 10.5 0 0 0-.5 3 8.3 8.3 0 0 0 2.4 6 8.5 8.5 0 0 0 11.8 0 8.4 8.4 0 0 0 .4-11.4 2.6 2.6 0 0 1 .1-3.4l37-37a2.6 2.6 0 0 1 3.4-.1 7.9 7.9 0 0 0 5.5 2.1 8.3 8.3 0 0 0 5.9-2.5 8.5 8.5 0 0 0 0-11.8 8.3 8.3 0 0 0-6-2.4 7.9 7.9 0 0 0-3 .5 2.4 2.4 0 0 1-3.2-3.2 7.9 7.9 0 0 0 .5-3 8.3 8.3 0 0 0-2.4-6 8.5 8.5 0 0 0-11.8 0 8.4 8.4 0 0 0-.4 11.4 2.6 2.6 0 0 1-.1 3.4l-37 37a2.6 2.6 0 0 1-3.4.1 7.8 7.8 0 0 0-5.4-2.1 8.4 8.4 0 0 0-6 2.5 8.5 8.5 0 0 0 0 11.8 8.3 8.3 0 0 0 6 2.4 10.5 10.5 0 0 0 3-.5z"/></symbol><symbol id="bone" viewBox="0 0 100 100"><path d="M30.9 96.5a13.2 13.2 0 0 1-9.4-3.9 13.4 13.4 0 0 1-3.9-9.5v-.7h-.7a13 13 0 0 1-9.5-3.9 13.2 13.2 0 0 1-3.9-9.4 13.6 13.6 0 0 1 3.9-9.5 13.4 13.4 0 0 1 16.3-2l33.9-33.9a13.6 13.6 0 0 1 2-16.3 13.6 13.6 0 0 1 9.5-3.9 13.2 13.2 0 0 1 9.4 3.9 13 13 0 0 1 3.9 9.5v.7a13.4 13.4 0 1 1 .8 26.7 13.8 13.8 0 0 1-6.9-1.9L42.4 76.3a13.3 13.3 0 0 1-11.5 20.2z"/></symbol><symbol id="heart" viewBox="0 0 100 100"><path d="M50 90.5a2.6 2.6 0 0 1-1.8-.7L12.9 54.4C4.7 46.5 2.1 31 7.4 21.2 9 18.3 15.3 10.7 25.3 9.6c8.3-.9 16.6 3 24.7 11.5 7.6-8.4 15.7-12.3 24-11.5s16.7 8.2 18.6 11.6c5.3 9.8 2.7 25.3-5.5 33.3L51.8 89.8a2.6 2.6 0 0 1-1.8.7z"/></symbol><symbol id="bone-half" viewBox="0 0 100 100"><path d="M92.6 21.5a13.4 13.4 0 0 0-10.2-3.9v-.8a12.9 12.9 0 0 0-3.9-9.4 13.3 13.3 0 0 0-18.8 0 13.5 13.5 0 0 0-2.1 16.3L23.7 57.6a13.4 13.4 0 0 0-16.3 2 13.6 13.6 0 0 0-3.9 9.5 13.3 13.3 0 0 0 13.4 13.3h.7v.7a13.3 13.3 0 0 0 13.3 13.4 13.3 13.3 0 0 0 11.5-20.2l33.9-33.9a13.8 13.8 0 0 0 6.9 1.9 13.4 13.4 0 0 0 9.4-22.8zm-3.5 15.3a8.3 8.3 0 0 1-5.9 2.5 7.9 7.9 0 0 1-5.5-2.1 2.6 2.6 0 0 0-3.4.1L50 61.6V38.4l12.7-12.7a2.6 2.6 0 0 0 .1-3.4 8.2 8.2 0 0 1 .4-11.3 8.3 8.3 0 0 1 5.9-2.5 8.7 8.7 0 0 1 5.9 2.4 8.2 8.2 0 0 1 2.4 5.9 8.1 8.1 0 0 1-.5 3.1 2.4 2.4 0 0 0 3.2 3.2 10.6 10.6 0 0 1 3.1-.5 8.2 8.2 0 0 1 5.9 2.4 8.5 8.5 0 0 1 0 11.8z"/></symbol><symbol id="logo-cap" viewBox="0 0 100 100"><path d="M49.7 55.4h-.2c0 .1 0 .1-.1.2h-.1a2.9 2.9 0 0 0-.3 1.6 1.7 1.7 0 0 1 0 1c-.4.7-1.4.6-1.9 1.2s-.3.9 0 1.4a2.9 2.9 0 0 0 1.3.8 8.1 8.1 0 0 0 3.1.2 9.4 9.4 0 0 0 3-.7 2.1 2.1 0 0 0 1.3-1.1 1.2 1.2 0 0 0-.3-1.5c-.6-.4-1.6-.1-2-.6a2.1 2.1 0 0 1-.4-1.1 3 3 0 0 0-.7-1.5 2.4 2.4 0 0 0-1.8-.5h-.4c-.1 0-.2 0-.2.1h-.2a.1.1 0 0 0-.1.5z"/><circle cx="47" cy="57.4" r="1.2"/><circle cx="48.7" cy="54" r="1.2"/><circle cx="52.5" cy="53.5" r="1.2"/><circle cx="55" cy="56.4" r="1.2"/><path d="M96.5 54.8l-5.8-27.6a2.2 2.2 0 0 0-.8-1.4c-1.7-2.7-6.6-3.8-15.2-3.7a163.9 163.9 0 0 0-29.9 3.7C27.4 29.4 8.1 35.7 4.3 41.6a4.6 4.6 0 0 0-.8 3.7l.3 1 5.7 26.4c.7 3.6 5.3 5.2 14.5 5.2h1.3a163.9 163.9 0 0 0 29.9-3.7c17.4-3.6 36.7-9.9 40.5-15.8a4.5 4.5 0 0 0 .8-3.6zm-53.8 2.6a8.6 8.6 0 1 1 8.5 8.6 8.5 8.5 0 0 1-8.5-8.6zm16-7a10.2 10.2 0 0 0-17.1 3.5c-13.5 2.2-24.8 2.6-30.2 1.3l-1.2-5.3a43.7 43.7 0 0 0 7.8.5h1.4a162.9 162.9 0 0 0 29.8-3.7c14.5-3 30.2-7.8 37.3-12.7l1.1 5.1c-3.9 3.5-14.9 7.8-28.9 11.3zM19.8 38.5a174.2 174.2 0 0 1 26.1-7.3 177.3 177.3 0 0 1 26.9-3.6c7.4-.2 10.6.5 11.8.9-1 1-3.6 2.9-10.4 5.5a170.9 170.9 0 0 1-26.1 7.3 175.7 175.7 0 0 1-26.9 3.6c-7.4.3-10.5-.4-11.8-.9 1-.9 3.6-2.8 10.4-5.5zm60.4 23a174.2 174.2 0 0 1-26.1 7.3 177.3 177.3 0 0 1-26.9 3.6c-9.1.3-11.8-.9-12.4-1.2l-1.1-5.1c5.2 1.4 16.7 1 30.4-1.2a10.4 10.4 0 0 0 16.6-3.4c13.9-3.4 25-7.6 29.3-11.2l1.1 5.2c-.5.6-2.5 2.7-10.9 6z"/></symbol><symbol id="logo-lines" viewBox="0 0 100 100"><path d="M93.8 29.1a41.1 41.1 0 0 0-10.3-14.9C75.2 6.6 63.6 2.5 50 2.5A47.5 47.5 0 0 0 2.5 50 47.5 47.5 0 0 0 50 97.5 47.5 47.5 0 0 0 97.5 50a57.6 57.6 0 0 0-3.7-20.9zM81.9 81.9A45.1 45.1 0 1 1 50 4.9c12.9 0 24 3.9 31.9 11.1a38.9 38.9 0 0 1 9.6 14 52.8 52.8 0 0 1 3.6 20 45.1 45.1 0 0 1-13.2 31.9z"/><path d="M41.3 45.3a3.2 3.2 0 1 0 3.1 3.2 3.1 3.1 0 0 0-3.1-3.2zm1.1 2.9a.7.7 0 0 1-.7-.6.7.7 0 0 1 .7-.7.8.8 0 0 1 .7.7c0 .3-.4.6-.7.6zm17.2-2.9a3.2 3.2 0 1 0 3.2 3.2 3.1 3.1 0 0 0-3.2-3.2zm1.1 2.9a.7.7 0 0 1-.7-.6.7.7 0 0 1 1.4 0 .7.7 0 0 1-.7.6zm-20.9-6.5a1.1 1.1 0 0 0-1.3-1.1 6.1 6.1 0 0 0-5.5 6.3 1.2 1.2 0 0 0 1.2 1.2 1.2 1.2 0 0 0 1.2-1.2 4.4 4.4 0 0 1 .5-1.9 3.3 3.3 0 0 1 2.8-2 1.1 1.1 0 0 0 1.1-1.3zm22.3-1.1a1.2 1.2 0 1 0-.2 2.4 3.3 3.3 0 0 1 2.8 2 4.1 4.1 0 0 1 .5 1.9 1.2 1.2 0 1 0 2.4 0 6.1 6.1 0 0 0-5.5-6.3z"/><path d="M91.3 51.3c-2.7-9.8-16.1-19.5-16.7-19.9a14.5 14.5 0 0 0-9.6-4.7l-2.6-12.1a.9.9 0 0 0-.3-.6c-.8-1.2-2.9-1.7-6.8-1.6A71.1 71.1 0 0 0 42 14c-7.7 1.6-16.3 4.4-18 7a3.1 3.1 0 0 0-.4 1.7c.1.1.1.3.2.4l2.4 11.2H26c-.6.4-14 10.2-16.7 19.9-1 3.8.6 8.2 4.6 12.7A34.7 34.7 0 0 0 24 75a5.2 5.2 0 0 0 2.4.7 1.5 1.5 0 0 0 1.4-.6l.3-.5c1 4 3.1 6.6 6.1 7.8a10.4 10.4 0 0 0 3.9.7l2.3-.2c.2.2 5.2 3.5 9.5 3.6h.2c4.3-.1 9.3-3.4 9.5-3.6l2.4.2a10.7 10.7 0 0 0 3.9-.7 8.5 8.5 0 0 0 3.8-3 12 12 0 0 0 2.3-5.1c.1-.2.1-.4.2-.6s.1-.6.1-.9.1-.6.1-.9v-.6a1.6 1.6 0 0 0 .4.7 1.5 1.5 0 0 0 1.4.7 6.8 6.8 0 0 0 2.4-.7 38 38 0 0 0 10.1-8c4-4.6 5.6-9 4.6-12.7zM60.6 17.7l.5 2.2c-1.8 1.6-6.7 3.5-12.9 5a4.8 4.8 0 0 0-3.3-1.4 4.6 4.6 0 0 0-4.3 3c-6 1-11 1.2-13.5.6l-.5-2.4a17.5 17.5 0 0 0 3.5.3h.6A80.6 80.6 0 0 0 44 23.3c6.4-1.3 13.4-3.5 16.6-5.6zM41.1 28.1a3.8 3.8 0 1 1 3.8 3.8 3.8 3.8 0 0 1-3.8-3.8zm.6 3.3a4.8 4.8 0 0 0 3.2 1.3 4.6 4.6 0 0 0 4.2-2.8c6.2-1.5 11.1-3.4 13-5l.5 2.3c-.2.3-1.1 1.2-4.8 2.7a82.8 82.8 0 0 1-11.6 3.2 75.1 75.1 0 0 1-12 1.6c-4.1.2-5.3-.3-5.5-.5l-.5-2.3c2.3.7 7.4.5 13.5-.5zM30.9 19.7a78.4 78.4 0 0 1 11.6-3.3 73.7 73.7 0 0 1 12-1.6c3.3-.1 4.7.2 5.2.4s-1.6 1.3-4.6 2.4a67.8 67.8 0 0 1-11.6 3.3 73.7 73.7 0 0 1-12 1.6c-3.3.1-4.7-.2-5.2-.4s1.6-1.3 4.6-2.4zm-4.1 43.5l-.3 6.2v1.1a10.3 10.3 0 0 1-.4 2.7c-1.8-.4-7.6-4.1-11.6-9.3-1.8-2.3-3.7-5.8-2.8-8.9 1.9-6.9 10.1-14.2 13.8-17.2.2 2.8.4 5.6.7 8.3l.3 3.7a121 121 0 0 1 .3 13.4zm23.3 20.9h-.2a17.7 17.7 0 0 1-5.9-1.9l6-2.7 6 2.7a17.7 17.7 0 0 1-5.9 1.9zm19.8-12.3v.7a1.7 1.7 0 0 0-.1.7.9.9 0 0 0-.1.5c-.8 3.4-2.4 5.5-4.7 6.4-4.6 1.9-11.1-1.5-13.4-2.8l-.4-.2v-6.6a7.8 7.8 0 0 0 3.3-3.8c1-2.8-4.6-2.6-4.6-2.6s-5.1.1-4.3 2.6a7.6 7.6 0 0 0 3.2 3.8v6.6c-2 1.2-8.9 4.9-13.7 3-2.3-.9-3.9-3-4.7-6.4 0-.2-.1-.5-.1-.7a2 2 0 0 1-.1-.7v-1.4a1.3 1.3 0 0 1 .1-.6 1.3 1.3 0 0 1 .1-.6.8.8 0 0 1 .2-.5 1.4 1.4 0 0 1 .2-.6.8.8 0 0 1 .2-.5l.3-.6.4-.5.3-.5c.2-.1.3-.3.5-.5l.4-.4.5-.5.5-.4.6-.4a1 1 0 0 1 .5-.4l.6-.4.6-.4.7-.3.6-.4.7-.3.7-.3.6-.3.7-.2.7-.3.7-.2.7-.3.6-.2a24.8 24.8 0 0 1 7.1-1 25.8 25.8 0 0 1 7.3 1.1l.7.2.7.2.7.3.6.2.7.3.7.3.7.3.6.3.7.4.6.3.6.4.6.4.6.4.5.4c.2.2.4.3.5.5l.5.4.5.5.4.5.3.5.4.5a1.7 1.7 0 0 1 .2.5l.3.6c.1.2.1.4.2.5s.1.4.1.6.1.4.2.6v1.3zm1.8-3.9a1.6 1.6 0 0 0-.4-.7l-.3-.7-.5-.7-.4-.6-.5-.6-.6-.6a1.2 1.2 0 0 0-.5-.5l-.6-.6-.6-.4-.7-.5-.7-.5-.6-.4-.7-.4-.8-.3-.7-.4-.7-.3-.7-.3-.8-.3-.7-.3-.7-.3-.8-.2-.7-.2a25.8 25.8 0 0 0-15.8-.1l-.7.2-.7.3-.7.2-.7.3-.8.3-.7.3-.7.3-.8.3-.7.4-.7.4-.7.4-.6.4-.7.5-.6.5-.6.5-.6.5-.5.6-.5.6-.5.6-.5.6v.3c0-1.1.1-2.1.1-3.2a126 126 0 0 0-.3-13.7c-.1-1.3-.3-2.5-.4-3.7-.2-3.1-.5-6.2-.7-9.3a15 15 0 0 0 4.9.6h.6a83.3 83.3 0 0 0 13.3-1.7c7.2-1.5 15.2-4 17.6-6.5h.4s4-.1 8 3.7c-.1 3.4-.4 6.7-.7 10-.2 1.2-.3 2.5-.4 3.7a128.2 128.2 0 0 0-.2 13.8c0 2 .1 4.1.3 6.2V68zm14.4-7c-4 5.2-9.8 8.8-11.6 9.3a8.2 8.2 0 0 1-.4-2.8v-1l-.3-6.2a123.3 123.3 0 0 1 .3-13.5l.3-3.7c.2-2.7.5-5.4.6-8.2 3.8 3 12 10.2 13.9 17.1.9 3.2-1 6.6-2.8 9z"/><path d="M44.2 27.2H44a1.5 1.5 0 0 0-.1.7v.4c-.2.3-.7.3-.9.5a.6.6 0 0 0 0 .6l.6.4H45a3.5 3.5 0 0 0 1.4-.3 1.2 1.2 0 0 0 .5-.5c.1-.2.1-.5-.1-.6s-.7-.1-.9-.3-.2-.3-.2-.5a1.1 1.1 0 0 0-.3-.7.8.8 0 0 0-.8-.2h-.2a.1.1 0 0 1-.1.1h-.1z"/><circle cx="43" cy="28" r=".6"/><path d="M43.7 27.1a.5.5 0 0 0 .6-.6c0-.3-.2-.5-.6-.5a.5.5 0 0 0-.5.5c0 .4.2.6.5.6z"/><circle cx="45.4" cy="26.3" r=".6"/><circle cx="46.6" cy="27.6" r=".6"/></symbol><symbol id="kids" viewBox="0 0 100 100"><path d="M83.2 49.5H62.9a4.1 4.1 0 0 0 1.6-3.3V18.8a4.3 4.3 0 0 0-4.3-4.3H32.8a4.3 4.3 0 0 0-4.3 4.3v27.4a4.1 4.1 0 0 0 1.6 3.3H16.8a4.3 4.3 0 0 0-4.3 4.3v27.4a4.3 4.3 0 0 0 4.3 4.3h27.4a4.3 4.3 0 0 0 4.3-4.3V53.8a4.1 4.1 0 0 0-1.6-3.3h6.2a4.1 4.1 0 0 0-1.6 3.3v27.4a4.3 4.3 0 0 0 4.3 4.3h27.4a4.3 4.3 0 0 0 4.3-4.3V53.8a4.3 4.3 0 0 0-4.3-4.3zM32.5 18.8a.3.3 0 0 1 .3-.3h27.4a.3.3 0 0 1 .3.3v27.4a.3.3 0 0 1-.3.3H32.8a.3.3 0 0 1-.3-.3zm12 62.4a.3.3 0 0 1-.3.3H16.8a.3.3 0 0 1-.3-.3V53.8a.3.3 0 0 1 .3-.3h27.4a.3.3 0 0 1 .3.3zm39 0a.3.3 0 0 1-.3.3H55.8a.3.3 0 0 1-.3-.3V53.8a.3.3 0 0 1 .3-.3h27.4a.3.3 0 0 1 .3.3z"/><path d="M43.9 21.9h5.3l7.3 21.2h-5.9l-1.3-4.2h-5.6l-1.3 4.2h-5.9zm4.5 13.2l-1.9-6.6-2 6.6zm-8.9 37.6a4.8 4.8 0 0 1-.6 2.4 4.4 4.4 0 0 1-1.6 1.7 8.2 8.2 0 0 1-2.5 1 13.6 13.6 0 0 1-2.9.3H21.5V56.9h12.3a4.6 4.6 0 0 1 2 .5 4.4 4.4 0 0 1 1.5 1.2 7.7 7.7 0 0 1 1 1.8 6.3 6.3 0 0 1 .3 1.9 5.1 5.1 0 0 1-.8 2.9 4.3 4.3 0 0 1-2.2 2 5.6 5.6 0 0 1 2.8 1.9 5.7 5.7 0 0 1 1.1 3.6zM27.3 61.9v3.2h4a2.3 2.3 0 0 0 1.1-.3 1.6 1.6 0 0 0 .5-1.3 1.7 1.7 0 0 0-.5-1.3 1.4 1.4 0 0 0-.9-.3zm6.3 9.6a1.7 1.7 0 0 0-.4-1.3 1.4 1.4 0 0 0-1.1-.6h-4.8v3.6h4.6a1.7 1.7 0 0 0 1.7-1.7zm26-4.2a10 10 0 0 1 .8-3.8 10.8 10.8 0 0 1 2.1-3.4 10.5 10.5 0 0 1 3.4-2.4 12.3 12.3 0 0 1 9.9.3 8.3 8.3 0 0 1 3.3 3.4l-4.4 3.1a3.6 3.6 0 0 0-.8-1.2 2.8 2.8 0 0 0-1.1-.8l-1.2-.5h-1.2a4.8 4.8 0 0 0-2.2.5 4.7 4.7 0 0 0-1.5 1.3 5.1 5.1 0 0 0-.9 1.8 6.8 6.8 0 0 0-.2 2 7.6 7.6 0 0 0 .3 2.1 5.1 5.1 0 0 0 .9 1.8 6.1 6.1 0 0 0 1.6 1.2 4.6 4.6 0 0 0 2 .5l1.2-.2a4.2 4.2 0 0 0 1.2-.4l1.1-.8a3.5 3.5 0 0 0 .7-1.2l4.8 2.8a6.2 6.2 0 0 1-1.5 2.1 8.6 8.6 0 0 1-2.2 1.5 7.9 7.9 0 0 1-2.7 1l-2.7.3a10 10 0 0 1-4.3-.9 12 12 0 0 1-3.4-2.5 11.5 11.5 0 0 1-2.2-3.5 11.4 11.4 0 0 1-.8-4.1z"/></symbol><symbol id="yard" viewBox="0 0 100 100"><path d="M93.3 35.8a1.2 1.2 0 0 0 1.2-1.2v-3.5a1.3 1.3 0 0 0-1.2-1.3h-5.8v-7.2a2.4 2.4 0 0 0-.5-1.4L83.7 17a2.2 2.2 0 0 0-3.4 0L77 21.2a2.4 2.4 0 0 0-.5 1.4v7.2h-5v-7.2a2.4 2.4 0 0 0-.5-1.4L67.7 17a2.2 2.2 0 0 0-3.4 0L61 21.2a2.4 2.4 0 0 0-.5 1.4v7.2h-5v-7.2a2.4 2.4 0 0 0-.5-1.4L51.7 17a2.2 2.2 0 0 0-3.4 0L45 21.2a2.4 2.4 0 0 0-.5 1.4v7.2h-5v-7.2a2.4 2.4 0 0 0-.5-1.4L35.7 17a2.2 2.2 0 0 0-3.4 0L29 21.2a2.4 2.4 0 0 0-.5 1.4v7.2h-5v-7.2a2.4 2.4 0 0 0-.5-1.4L19.7 17a2.2 2.2 0 0 0-3.4 0L13 21.2a2.4 2.4 0 0 0-.5 1.4v7.2H6.7a1.3 1.3 0 0 0-1.2 1.3v3.5a1.2 1.2 0 0 0 1.2 1.2h5.8v32H6.7a1.3 1.3 0 0 0-1.2 1.3v3.5a1.2 1.2 0 0 0 1.2 1.2h5.8v7.8a2.2 2.2 0 0 0 2.2 2.2h6.6a2.2 2.2 0 0 0 2.2-2.2v-7.8h5v7.8a2.2 2.2 0 0 0 2.2 2.2h6.6a2.2 2.2 0 0 0 2.2-2.2v-7.8h5v7.8a2.2 2.2 0 0 0 2.2 2.2h6.6a2.2 2.2 0 0 0 2.2-2.2v-7.8h5v7.8a2.2 2.2 0 0 0 2.2 2.2h6.6a2.2 2.2 0 0 0 2.2-2.2v-7.8h5v7.8a2.2 2.2 0 0 0 2.2 2.2h6.6a2.2 2.2 0 0 0 2.2-2.2v-7.8h5.8a1.2 1.2 0 0 0 1.2-1.2v-3.5a1.3 1.3 0 0 0-1.2-1.3h-5.8v-32zm-69.8 32v-32h5v32zm16 0v-32h5v32zm16 0v-32h5v32zm21 0h-5v-32h5z"/></symbol><symbol id="logo" viewBox="0 0 100 100"><path d="M95.4 25.8h-6.2v-6.7H77.1v6.7h-9.5V10.9a2.7 2.7 0 0 0-2.7-2.7H35.1a2.7 2.7 0 0 0-2.7 2.7v14.9h-10v-6.7H10.3v6.7H4.6A2.6 2.6 0 0 0 2 28.4v60.8a2.6 2.6 0 0 0 2.6 2.6h8.6V25.7h6.4v66.1h60.2V25.5h6.8v66.3h8.8a2.6 2.6 0 0 0 2.6-2.6V28.4a2.6 2.6 0 0 0-2.6-2.6zM37.9 13.7h24.2v12.1H37.9zm11.6 67.8a22.8 22.8 0 1 1 22.8-22.8 22.8 22.8 0 0 1-22.8 22.8z"/><path d="M49.5 39.9a18.9 18.9 0 1 0 18.9 18.8 18.8 18.8 0 0 0-18.9-18.8zm3.4 5.6a3.3 3.3 0 1 1-3.3 3.3 3.3 3.3 0 0 1 3.3-3.3zm-10.1 1.2a3.3 3.3 0 1 1 0 6.6 3.3 3.3 0 0 1 0-6.6zM35 59a3.3 3.3 0 1 1 3.3 3.3A3.4 3.4 0 0 1 35 59zm26.8 7.6a6.7 6.7 0 0 1-3.3 2.9 24.4 24.4 0 0 1-8.1 1.7 20.6 20.6 0 0 1-8.2-.5 6.9 6.9 0 0 1-3.6-2.1 3.2 3.2 0 0 1 0-3.8c1.2-1.4 4.1-1.3 5-3a4.9 4.9 0 0 0 .1-2.7 7.2 7.2 0 0 1 .9-4.3l.2-.4.3-.4.4-.3.4-.3.4-.3.5-.2.4-.2h.7a6.3 6.3 0 0 1 4.9 1.5 7.7 7.7 0 0 1 1.8 4 5.5 5.5 0 0 0 .9 2.8c1.3 1.3 3.8.7 5.4 1.7a3.1 3.1 0 0 1 .9 3.9zm-2.1-6.8a3.3 3.3 0 1 1 3.3-3.3 3.3 3.3 0 0 1-3.3 3.3z"/></symbol><symbol id="logo-solid" viewBox="0 0 100 100"><path d="M44.6 81.6a15.5 15.5 0 0 0 6 1.8h.1a15 15 0 0 0 5.9-1.8l-6-2.7z"/><circle cx="42.4" cy="46.9" r=".7"/><path d="M40.6 25.9a4.4 4.4 0 0 1 4.3-3 4.4 4.4 0 0 1 3.3 1.4c6.2-1.5 11.1-3.4 12.9-5l-.5-2.3c-3.2 2.2-10.2 4.4-16.6 5.7a80.6 80.6 0 0 1-13.3 1.7h-.6a17.5 17.5 0 0 1-3.5-.3l.5 2.4c2.5.6 7.5.4 13.5-.6zm29.9 44a1.3 1.3 0 0 1-.1-.6c-.1-.2-.1-.4-.2-.6l-.2-.5a1.4 1.4 0 0 1-.2-.6l-.3-.5a1 1 0 0 0-.4-.5l-.3-.5-.4-.5-.5-.5-.5-.4-.5-.5-.5-.4-.6-.4-.6-.4-.6-.4-.6-.3-.7-.4-.6-.3-.7-.3-.7-.3-.6-.3-.7-.2-.7-.3-.7-.2-.7-.2a22.7 22.7 0 0 0-7.3-1.1 25.3 25.3 0 0 0-7.1 1l-.6.2-.7.3-.7.2-.7.2-.6.3-.7.3-.7.3-.7.3-.6.4-.6.3-.7.4-.6.4-.5.4-.6.4-.5.4-.5.5-.4.4-.4.5-.4.5-.4.5-.3.5c-.1.2-.1.4-.2.6l-.2.5a1.4 1.4 0 0 0-.2.6 1.3 1.3 0 0 0-.1.6 1.3 1.3 0 0 0-.1.6v1.3a2.2 2.2 0 0 0 .1.8c0 .2.1.4.1.7.8 3.3 2.4 5.5 4.7 6.4 5.2 2.1 12.9-2.5 14.1-3.2v-6.5a7.8 7.8 0 0 1-3.2-3.7c-.8-2.5 3.4-2.6 4.4-2.6s5.5-.2 4.6 2.6a7.5 7.5 0 0 1-3.4 3.8v6.7c2.3 1.3 8.8 4.6 13.4 2.8 2.3-.9 3.9-3.1 4.7-6.4a.9.9 0 0 1 .1-.5c0-.2.1-.5.1-.7v-2zM44.9 32.1a4.8 4.8 0 0 1-3.2-1.3c-6.1 1-11.2 1.2-13.5.5l.5 2.3c.2.1 1.4.7 5.5.5a75.1 75.1 0 0 0 12-1.6 82.8 82.8 0 0 0 11.6-3.2c3.7-1.5 4.6-2.4 4.8-2.7l-.5-2.3c-1.9 1.6-6.8 3.5-13 5a4.6 4.6 0 0 1-4.2 2.8zM31.5 21.9a73.7 73.7 0 0 0 12-1.6A78.4 78.4 0 0 0 55.1 17c3-1.1 4.2-2 4.6-2.4s-1.9-.5-5.2-.4a73.7 73.7 0 0 0-12 1.6 78.4 78.4 0 0 0-11.6 3.3c-3 1.1-4.2 2-4.6 2.4s1.9.5 5.2.4zm-5.3 22.8c-.3-2.7-.5-5.5-.7-8.3-3.7 3-11.9 10.3-13.8 17.2-.9 3.2 1 6.6 2.8 9 4 5.1 9.8 8.8 11.6 9.3a11.8 11.8 0 0 0 .4-2.8V68l.3-6.1a123.3 123.3 0 0 0-.3-13.5z"/><path d="M42.5 30.7a4 4 0 0 0 2.4.7 3.9 3.9 0 0 0 3.4-1.9 3.6 3.6 0 0 0 .6-2 4.1 4.1 0 0 0-1.4-3 4 4 0 0 0-2.6-1 3.9 3.9 0 0 0-3.6 2.3 3.3 3.3 0 0 0-.4 1.7 4 4 0 0 0 1.6 3.2zm4.1-4.2a.5.5 0 0 1 .5.5.6.6 0 0 1-.5.6.6.6 0 0 1-.6-.6.6.6 0 0 1 .6-.5zm-1.2-1.3a.6.6 0 0 1 .6.5.6.6 0 0 1-.6.6.6.6 0 0 1-.5-.6.5.5 0 0 1 .5-.5zm-1 1.2h.2a.8.8 0 0 1 .8.2 1.1 1.1 0 0 1 .3.7c0 .2.1.3.2.5s.6.1.9.2a.6.6 0 0 1 .1.7 1.2 1.2 0 0 1-.5.5l-1.4.3h-1.4L43 29a.6.6 0 0 1 0-.6c.2-.2.7-.2.9-.5v-.4a2.2 2.2 0 0 1 .1-.8h.2c0-.1 0-.1.1-.1h.1zm-.7-1c.4 0 .6.2.6.5a.6.6 0 0 1-.6.6.6.6 0 0 1-.5-.6.5.5 0 0 1 .5-.5zm-.7 1.5a.5.5 0 0 1 .5.5.6.6 0 0 1-.5.6.6.6 0 0 1-.6-.6.6.6 0 0 1 .6-.5zm21.7 1c-1.7 2.6-10.3 5.4-18 7a83.3 83.3 0 0 1-13.3 1.7h-.6A14 14 0 0 1 28 36c.1 2.8.4 5.7.6 8.5.1 1.2.3 2.5.4 3.7a126.7 126.7 0 0 1 .2 13.7c0 1.8-.1 3.7-.2 5.5 0-.1.1-.3.1-.4a2.5 2.5 0 0 1 .4-.7l.4-.7.4-.6.5-.6.5-.6.5-.6.6-.5.6-.5.6-.5.7-.5.7-.4.6-.4.7-.4.8-.4.7-.3.7-.3.7-.3.8-.3.7-.3.7-.3.7-.2.7-.2a26.6 26.6 0 0 1 15.8 0l.8.3.7.2.7.3.7.2.8.3.7.4.7.3.8.3.7.4.7.4.6.4.7.5.7.4.6.5.6.5.6.6.5.6.5.6.2.2-.3-5.8a127.5 127.5 0 0 1 .3-13.7l.3-3.7c.3-3.3.6-6.7.7-10.1a13.2 13.2 0 0 0-7.1-3.7zM35.9 44.4a4.4 4.4 0 0 0-.5 1.9 1.2 1.2 0 0 1-1.2 1.2 1.2 1.2 0 0 1-1.2-1.2 6.1 6.1 0 0 1 5.5-6.3 1.2 1.2 0 1 1 .2 2.4 3.3 3.3 0 0 0-2.8 2zm5.4 6.6a3.2 3.2 0 1 1 3.1-3.1 3.1 3.1 0 0 1-3.1 3.1zm18.3 0a3.2 3.2 0 0 1 0-6.3 3.2 3.2 0 1 1 0 6.3zm8-4.7a1.2 1.2 0 1 1-2.4 0 4.1 4.1 0 0 0-.5-1.9 3.3 3.3 0 0 0-2.8-2 1.2 1.2 0 1 1 .2-2.4 6.1 6.1 0 0 1 5.5 6.3z"/><path d="M83.6 16.4a47.6 47.6 0 0 0-67.2 0 47.6 47.6 0 0 0 0 67.2 47.6 47.6 0 0 0 67.2 0 47.6 47.6 0 0 0 0-67.2zm-7.7 54.3a5.7 5.7 0 0 1-2.5.8H73c0 .3-.1.5-.1.8s-.1.6-.1.9-.1.4-.2.6a14.1 14.1 0 0 1-2.2 5.1 9.4 9.4 0 0 1-3.9 3 10.7 10.7 0 0 1-3.9.7l-2.3-.2h-.1c-.2.2-5.2 3.5-9.5 3.6h-.2c-4.3-.1-9.3-3.4-9.5-3.6l-2.3.2a10.7 10.7 0 0 1-3.9-.7c-3.1-1.2-5.2-4-6.1-8.1a4.4 4.4 0 0 1-.2-1v-.2a3.4 3.4 0 0 1-.6 1.2 1.6 1.6 0 0 1-1.4.7 5.2 5.2 0 0 1-2.4-.8A34.1 34.1 0 0 1 14 65.8c-4-4.6-5.6-9-4.6-12.7C12 43.2 25.4 33.5 26 33l-2.2-10.5c-.1-.1-.1-.3-.2-.5a3 3 0 0 1 .4-1.6c1.7-2.6 10.3-5.4 18-7a82 82 0 0 1 13.3-1.7c3.9 0 6 .5 6.8 1.7a.7.7 0 0 1 .3.6l2.4 11.3a15.6 15.6 0 0 1 9.3 4.9l.2.2c2.3 1.8 13.8 10.7 16.2 19.7 1 3.7-.5 8.1-4.6 12.7a35.2 35.2 0 0 1-10 7.9z"/><path d="M74.3 33.5c-.2 2.8-.4 5.6-.7 8.3l-.3 3.7a122.7 122.7 0 0 0-.2 13.5c0 2 .1 4.1.2 6.1 0 .4.1.7.1 1.1a6.4 6.4 0 0 0 .4 2.8c1.7-.5 7.6-4.2 11.5-9.3 1.8-2.4 3.7-5.8 2.9-9-1.9-6.9-10.2-14.2-13.9-17.2z"/><circle cx="60.7" cy="46.9" r=".7"/></symbol><symbol id="park" viewBox="0 0 100 100"><path d="M70.2 65.3h-4.1V63h1.5a2 2 0 0 0 2-2v-4.3a2 2 0 0 0-2-2.1h-1.5v-2.1h1.5a2 2 0 0 0 2-2v-4.4a2 2 0 0 0-2-2h-1.5v-.3a.9.9 0 0 0-1-.9h-1.6a.9.9 0 0 0-1 .9v.3h-45v-.3a.9.9 0 0 0-1-.9h-1.6a.9.9 0 0 0-1 .9v.3h-1.5a2 2 0 0 0-2 2v4.4a2 2 0 0 0 2 2h1.5v2.1h-1.5a2 2 0 0 0-2 2.1V61a2 2 0 0 0 2 2h1.5v2.3H9.8A1.8 1.8 0 0 0 8 67v2.6a1.8 1.8 0 0 0 1.8 1.7h1.8v9.6a1 1 0 0 0 1 1.1H14a1.1 1.1 0 0 0 1.1-1.1v-9.6h49.8v9.6A1.1 1.1 0 0 0 66 82h1.4a1 1 0 0 0 1-1.1v-9.6h1.8a1.8 1.8 0 0 0 1.8-1.7V67a1.8 1.8 0 0 0-1.8-1.7zM17.5 52.5h45v2.1h-45zm0 10.5h45v2.3h-45zm72.6-45H75.2a2.5 2.5 0 0 0-2.5 2.6v17.8a2.6 2.6 0 0 0 2.5 2.6h5.7v39.9A1.1 1.1 0 0 0 82 82h1.4a1 1 0 0 0 1-1.1V41h5.7a2.6 2.6 0 0 0 2.6-2.6V20.6a2.6 2.6 0 0 0-2.6-2.6zM89 29.6a6 6 0 0 1-.9 1.5l-.6.3h-2.2a2.8 2.8 0 0 1-1.3 0l-.3.2c-.4 1.2-.9 2.4-1.4 3.6a1 1 0 0 1-1 .7 3 3 0 0 1-1.3-.2 8.7 8.7 0 0 1-3-1.6l-.7-.7a1.4 1.4 0 0 1-.2-.6c-.1-.3 0-.4.2-.5a3.9 3.9 0 0 0 1.6-1.5 9.5 9.5 0 0 0 1.6-3.8c.1-.8.1-1.6.2-2.4s.1-1.1.1-1.6h.3l.9 1.7c.1.1.2.1.2 0s.3-.7.4-1.1.1-.1.2 0l.8 1.5.3.3h.5a3 3 0 0 1 1.8 1.6 1.3 1.3 0 0 0 .6.4l2.2.5h.6a.7.7 0 0 1 .7.7 3.8 3.8 0 0 1-.3 1z"/></symbol></svg>