<svg xmlns="http://www.w3.org/2000/svg" width="751" height="768" viewBox="0 0 751 768"><title>logo</title><g id="bw"><path d="M715.5,202.9H669V152.5H578.3v50.4H507.5V91.3a20.6,20.6,0,0,0-20.6-20.6H264.1a20.6,20.6,0,0,0-20.6,20.6V202.9H168.6V152.5H77.9v50.4H35.5A19.5,19.5,0,0,0,16,222.4V677.9a19.4,19.4,0,0,0,19.5,19.4H99.9V202H148V697.3H598.9V200.6h50.9V697.3h65.7A19.4,19.4,0,0,0,735,677.9V222.4A19.5,19.5,0,0,0,715.5,202.9Zm-430.7-91H466.2v91H284.8Zm87.3,508c-94,0-170.5-76.5-170.5-170.5S278.1,279,372.1,279s170.4,76.4,170.4,170.4S466.1,619.9,372.1,619.9Z"/><path d="M372.1,308.1c-78,0-141.4,63.4-141.4,141.3s63.4,141.4,141.4,141.4,141.3-63.4,141.3-141.4S450,308.1,372.1,308.1Zm25.3,42a24.8,24.8,0,1,1-24.8,24.8A24.7,24.7,0,0,1,397.4,350.1Zm-75.5,9.1A24.8,24.8,0,1,1,297.1,384,24.8,24.8,0,0,1,321.9,359.2ZM263.1,451a24.8,24.8,0,1,1,24.8,24.8A24.8,24.8,0,0,1,263.1,451Zm201.1,57.3c-4.8,10-14.9,16.9-25.4,21.6-18.6,8.4-39.4,11.4-60.1,13.1s-42,2.3-62-3.7c-10.1-3-20.2-8.1-26.3-16.3s-7.3-20.1-.6-27.8c9.5-11,30.8-9.9,37.6-22.6,3.3-6.3,1.9-13.7,1.2-20.7-1-10.9.4-22.3,6.1-31.8a27.3,27.3,0,0,1,2.1-3,31.1,31.1,0,0,1,2.3-2.8l2.7-2.6,2.9-2.4,3.2-2a21.1,21.1,0,0,1,3.4-1.6,22,22,0,0,1,3.6-1.3l4.6-.9c11.6-2,28.8,2.9,36.8,11.2s12,19.3,13.8,30.2c1.2,7.2,1.7,15.1,7,20.5,9.6,10,28.2,5.4,40,13.1C466.9,484.8,468.9,498.3,464.2,508.3ZM448,457.5a24.7,24.7,0,1,1,24.8-24.7A24.7,24.7,0,0,1,448,457.5Z"/></g></svg>